<?xml version="1.0" standalone="no"?>
<!DOCTYPE svg PUBLIC "-//W3C//DTD SVG 20010904//EN"
 "http://www.w3.org/TR/2001/REC-SVG-20010904/DTD/svg10.dtd">
<svg version="1.0" xmlns="http://www.w3.org/2000/svg"
 width="417.000000pt" height="731.000000pt" viewBox="0 0 417.000000 731.000000"
 preserveAspectRatio="xMidYMid meet">

<g transform="translate(0.000000,731.000000) scale(0.100000,-0.100000)"
fill="#000000" stroke="none">
<path d="M1580 7301 c0 -5 -26 -12 -57 -16 -59 -7 -78 -9 -218 -20 -44 -3 -96
-10 -115 -15 -19 -5 -62 -12 -95 -16 -33 -3 -65 -11 -71 -16 -7 -5 -35 -5 -65
-1 -60 9 -108 8 -216 -2 -46 -5 -77 -4 -85 3 -9 7 -25 6 -52 -3 -22 -8 -43
-12 -47 -9 -4 2 -10 0 -14 -5 -3 -7 -15 -7 -30 -1 -26 10 -122 18 -298 25
-100 4 -126 8 -168 29 l-49 25 0 -164 c0 -91 4 -165 8 -165 4 0 12 4 17 9 14
13 74 18 110 11 35 -7 83 13 93 39 7 17 12 17 72 5 52 -11 67 -11 75 -1 10 11
56 13 215 6 l55 -2 -45 -7 c-42 -7 -43 -7 -10 -8 19 -1 59 7 87 18 42 16 58
18 80 9 16 -6 45 -11 66 -10 21 0 48 -6 60 -14 12 -8 31 -15 42 -15 33 0 98
-26 111 -45 13 -17 58 -19 81 -2 7 5 20 4 32 -2 26 -14 88 -14 97 0 11 19 118
-15 107 -35 -3 -6 0 -6 8 2 16 14 33 16 24 2 -4 -6 12 -10 40 -10 28 0 44 -4
40 -10 -4 -6 6 -10 23 -10 16 0 46 -7 67 -16 21 -8 43 -13 50 -10 7 2 15 33
19 73 4 37 15 95 25 128 10 33 24 80 31 105 11 39 28 90 47 138 4 9 -14 12
-71 12 -42 0 -76 -4 -76 -9z m-137 -388 c-7 -2 -19 -2 -25 0 -7 3 -2 5 12 5
14 0 19 -2 13 -5z"/>
<path d="M1890 7288 c0 -13 -7 -45 -15 -72 -8 -27 -15 -60 -15 -73 0 -13 -10
-34 -21 -46 -37 -38 -59 -81 -59 -114 0 -39 -26 -87 -86 -160 -51 -63 -57 -99
-19 -109 45 -11 134 7 203 41 167 82 204 86 767 83 684 -3 999 -13 1054 -34
43 -16 110 -16 281 1 19 2 69 -1 110 -7 58 -9 69 -13 50 -19 l-25 -7 28 -1 27
-1 0 270 0 270 -1140 0 -1140 0 0 -22z"/>
<path d="M1010 6880 c0 -5 5 -10 10 -10 6 0 10 5 10 10 0 6 -4 10 -10 10 -5 0
-10 -4 -10 -10z"/>
<path d="M367 6873 c-4 -3 -5 -41 -2 -82 3 -42 7 -309 10 -593 4 -422 2 -519
-8 -530 -8 -7 -60 -42 -116 -78 -56 -36 -114 -75 -129 -88 -15 -12 -48 -36
-75 -53 -46 -31 -47 -32 -47 -84 l0 -52 68 -6 c83 -7 138 -25 123 -40 -6 -6
-11 -14 -11 -19 0 -18 54 -40 117 -49 116 -15 579 -22 673 -9 47 6 110 14 140
17 59 6 73 17 64 47 -4 11 -2 16 4 12 5 -3 12 20 16 56 4 35 4 64 -1 65 -5 2
-40 26 -78 53 -102 73 -102 73 -142 100 -20 14 -62 49 -92 78 l-56 54 4 126
c3 70 4 192 3 272 -4 223 -3 276 3 403 4 68 3 117 -2 117 -11 0 -33 144 -28
180 2 14 4 28 4 31 1 3 20 14 44 23 23 10 57 24 75 32 18 8 37 12 41 10 4 -3
13 -1 21 5 9 5 -105 9 -301 9 -174 0 -319 -3 -322 -7z"/>
<path d="M3756 5977 c-18 -13 -19 -20 -9 -78 6 -35 18 -90 27 -122 19 -69 20
-90 4 -134 -10 -28 -10 -36 5 -50 22 -22 163 -25 176 -4 6 10 19 12 45 7 26
-5 38 -3 41 6 7 23 15 226 9 242 -3 8 -19 18 -35 21 -21 5 -29 12 -29 28 0 12
-3 32 -6 44 -6 21 -8 21 -27 8 -30 -21 -57 -19 -98 9 -49 33 -80 40 -103 23z
m238 -251 c-6 -16 -24 -23 -24 -8 0 10 22 33 27 28 2 -2 1 -11 -3 -20z"/>
<path d="M4160 5828 c0 -18 -2 -79 -5 -135 -3 -55 -1 -112 4 -125 7 -16 10 26
10 135 1 86 -1 157 -4 157 -3 0 -5 -15 -5 -32z"/>
<path d="M1884 5658 c-4 -7 -3 -8 4 -4 7 4 12 2 12 -3 0 -6 -4 -11 -8 -11 -5
0 -31 -20 -59 -44 -41 -34 -49 -46 -40 -56 7 -8 7 -10 1 -7 -6 3 -21 -1 -33
-9 -17 -13 -20 -19 -10 -30 9 -11 7 -14 -10 -14 -19 0 -26 -11 -22 -34 1 -5
-5 -6 -13 -3 -17 7 -18 -13 -1 -25 6 -5 5 -8 -2 -8 -7 0 -13 -8 -12 -17 0 -11
3 -13 6 -5 2 6 9 12 14 12 6 0 7 -4 4 -10 -3 -5 -1 -18 5 -27 11 -17 11 -17 6
1 -5 13 -2 17 8 13 8 -3 20 1 27 9 7 8 18 13 24 10 7 -2 19 4 28 15 9 10 24
19 32 19 9 0 45 14 82 31 36 17 74 28 85 26 10 -3 25 1 32 9 17 16 30 19 21 4
-8 -13 1 -13 26 0 14 8 19 7 20 -2 0 -7 4 -4 9 7 8 19 9 18 9 -4 1 -18 5 -22
21 -18 19 5 24 -3 21 -30 -1 -6 3 -14 9 -18 5 -3 10 -1 10 6 0 20 16 -2 29
-40 9 -29 9 -32 -4 -21 -13 11 -14 10 -10 -3 4 -8 15 -17 26 -20 13 -4 17 -10
13 -22 -5 -12 -2 -16 11 -13 13 2 18 -5 20 -31 2 -19 -1 -28 -5 -22 -5 9 -9 7
-12 -7 -4 -16 -15 -20 -52 -20 -28 -1 -67 -11 -93 -24 -49 -25 -113 -80 -113
-98 0 -6 -5 -8 -11 -4 -7 4 -10 2 -7 -6 6 -20 -54 -75 -98 -89 -38 -12 -43
-12 -63 8 -11 11 -26 21 -33 21 -6 0 -8 3 -5 7 4 3 -10 16 -32 28 -40 23 -112
25 -138 3 -7 -5 -18 -6 -25 -2 -10 6 -10 5 -1 -7 6 -8 24 -16 39 -17 41 -3 42
-12 2 -12 -45 0 -93 -17 -142 -49 -21 -14 -61 -39 -89 -56 -43 -26 -50 -35
-51 -62 -1 -17 1 -30 4 -28 17 10 51 -21 76 -70 37 -75 95 -125 179 -154 63
-22 66 -25 60 -50 -3 -14 -14 -33 -24 -41 -27 -22 -71 -92 -71 -112 0 -10 8
-33 18 -52 15 -27 22 -32 35 -24 13 7 17 5 17 -6 0 -9 6 -13 13 -10 13 5 52
-61 49 -83 -2 -6 2 -14 8 -18 14 -9 12 28 -2 44 -11 11 -10 13 5 7 10 -3 21
-6 23 -6 2 0 4 -7 4 -17 0 -34 13 -2 16 39 2 35 8 73 13 85 1 1 17 -3 36 -8
23 -7 41 -7 53 0 16 10 16 10 0 11 -10 0 -18 6 -18 14 0 18 19 22 112 24 43 1
89 7 104 12 14 6 30 8 35 4 18 -11 8 -34 -17 -40 -18 -5 -22 -9 -13 -15 7 -4
18 -5 24 -1 5 3 4 -1 -3 -10 -7 -9 -24 -19 -37 -22 -14 -4 -25 -11 -25 -17 0
-6 -4 -7 -10 -4 -5 3 -18 1 -27 -5 -14 -9 -9 -10 24 -6 23 3 48 9 56 12 9 3
25 -4 36 -15 12 -12 21 -16 21 -9 0 6 7 4 18 -5 10 -10 21 -14 24 -11 4 3 16
0 28 -6 12 -7 20 -8 16 -2 -3 5 1 12 9 16 9 3 15 0 15 -9 0 -7 5 -17 12 -21 7
-5 8 -2 3 7 -5 8 -4 11 1 6 5 -5 9 -21 10 -37 1 -20 -3 -27 -13 -23 -8 3 -13
1 -11 -4 3 -8 -64 -74 -76 -74 -22 -2 -45 -13 -40 -20 3 -5 -2 -6 -10 -3 -8 3
-34 -7 -57 -22 -34 -21 -57 -27 -101 -28 -32 -1 -58 -1 -58 -2 0 0 9 -19 20
-42 11 -22 20 -48 20 -57 0 -25 20 -17 31 13 l11 27 13 -25 c16 -28 19 -108 6
-142 -5 -13 -15 -43 -22 -68 -7 -25 -17 -51 -23 -59 -9 -12 -8 -13 3 -6 10 6
12 4 6 -6 -5 -7 -8 -33 -8 -57 2 -61 23 -82 85 -82 26 0 48 4 48 9 0 4 10 19
23 32 12 14 22 27 23 29 1 3 17 30 37 61 54 84 62 76 60 -55 -1 -61 1 -105 3
-98 3 6 10 10 15 6 5 -3 9 -1 9 4 0 11 79 10 98 -1 6 -5 12 -4 12 0 0 5 32 10
70 11 39 2 82 7 96 12 38 15 39 14 63 -45 15 -36 20 -59 14 -70 -8 -13 -14 -7
-32 29 -13 24 -20 49 -17 55 4 7 -1 11 -13 11 -18 0 -20 -6 -18 -60 1 -36 -2
-59 -8 -57 -5 2 -11 9 -11 15 -1 7 -2 17 -3 23 0 5 -7 7 -13 3 -10 -6 -10 -5
-1 7 10 13 9 20 -8 38 -24 26 -43 18 -36 -15 2 -14 0 -27 -5 -30 -6 -4 -5 -10
3 -15 11 -6 9 -9 -5 -15 -23 -9 -34 9 -30 47 3 23 0 29 -16 29 -14 0 -20 -7
-21 -22 -1 -22 -1 -22 -9 2 -7 23 -8 22 -10 -12 -3 -53 -4 -55 -13 -65 -5 -4
-8 -3 -7 2 1 6 1 15 0 20 -1 6 -1 24 0 41 2 44 -28 55 -37 14 -3 -17 -10 -33
-14 -36 -5 -3 -10 -20 -10 -37 -1 -18 -3 -24 -6 -14 -3 11 -11 16 -19 13 -19
-7 -18 4 3 21 10 8 12 12 6 8 -9 -4 -12 3 -9 24 4 39 -21 50 -34 15 -6 -14
-10 -30 -10 -35 0 -5 -5 -9 -11 -9 -5 0 -8 4 -4 9 3 5 2 12 -3 15 -9 5 -10 -1
-13 -51 -2 -44 -21 1 -23 55 -1 40 -4 45 -26 49 -24 3 -24 3 -5 -11 11 -9 15
-16 8 -16 -6 0 -13 -12 -15 -27 -2 -14 -9 -28 -16 -31 -7 -2 -12 0 -10 5 1 4
-3 18 -10 31 -8 14 -9 22 -2 22 5 0 10 8 10 17 0 13 -3 14 -12 5 -9 -9 -14 -7
-24 6 -13 16 -13 16 -14 0 0 -10 -5 -18 -12 -18 -6 0 -8 3 -5 7 8 7 -11 33
-24 33 -5 0 -9 -20 -9 -44 0 -35 4 -45 20 -49 25 -7 26 -37 1 -37 -36 0 -42
-80 -8 -103 18 -13 19 -18 8 -26 -15 -9 -37 -5 -58 12 -8 5 -13 32 -13 63 0
30 -3 54 -7 55 -5 0 -15 2 -23 3 -8 2 -25 0 -37 -5 -20 -7 -23 -15 -23 -67 0
-65 -3 -72 -29 -65 -15 4 -17 17 -16 96 1 75 4 91 16 88 7 -2 38 -6 67 -7 49
-3 52 -2 52 21 0 13 6 26 13 29 10 5 10 7 0 12 -7 3 -13 12 -13 20 0 8 -4 14
-10 14 -5 0 -10 -6 -10 -14 0 -8 -9 -24 -21 -37 -11 -13 -17 -17 -13 -9 6 12
4 13 -7 3 -19 -18 -28 -16 -26 7 1 11 5 20 10 20 4 0 5 5 2 10 -3 6 -2 10 4
10 6 0 7 7 4 17 -5 12 -3 14 7 8 9 -5 11 -4 6 3 -13 21 -25 13 -44 -32 -22
-50 -37 -63 -46 -40 -3 8 -2 12 4 9 6 -3 10 -1 10 4 0 6 -5 11 -11 11 -5 0 -7
5 -4 10 13 21 23 70 15 70 -4 0 -20 -20 -34 -45 -15 -25 -31 -45 -36 -45 -6 0
-9 -6 -8 -12 2 -7 -3 -12 -9 -10 -20 3 -15 -36 5 -42 27 -9 40 -42 45 -109 3
-44 0 -60 -10 -64 -8 -3 -19 -1 -25 5 -7 7 -17 7 -34 0 -34 -16 -74 12 -74 52
0 33 22 50 70 53 17 1 30 4 30 8 0 16 -26 27 -56 22 -41 -7 -43 2 -6 40 21 24
23 29 8 23 -19 -7 -19 -6 -1 14 20 22 30 27 19 8 -4 -7 -3 -8 5 -4 6 4 9 11 6
15 -2 5 9 29 26 55 16 26 24 45 17 41 -7 -4 -5 0 5 8 13 11 15 16 5 19 -7 3
-23 -10 -36 -29 -13 -19 -28 -31 -34 -27 -7 4 -8 2 -4 -4 4 -7 1 -21 -7 -33
-9 -13 -17 -16 -22 -10 -3 6 -11 11 -17 11 -7 0 -6 -5 1 -14 9 -11 9 -16 0
-22 -8 -5 -10 -3 -5 7 4 8 1 6 -7 -4 -9 -10 -18 -18 -21 -18 -3 1 -7 1 -8 0
-25 -7 -36 -5 -31 7 3 8 1 14 -5 14 -5 0 12 21 37 47 25 27 50 47 55 45 7 -2
56 43 56 54 0 2 -7 4 -16 4 -10 0 -14 -5 -10 -16 3 -8 2 -12 -4 -9 -6 3 -13
-1 -16 -9 -3 -9 -10 -14 -14 -11 -4 3 -13 -2 -20 -10 -7 -8 -18 -15 -25 -15
-8 0 -15 -3 -17 -7 -1 -5 -24 -25 -51 -46 -38 -31 -48 -35 -53 -23 -10 26 2
43 58 79 75 48 143 107 124 107 -9 0 -54 -29 -100 -64 -47 -35 -88 -61 -92
-58 -4 4 -4 2 0 -5 3 -6 2 -14 -4 -18 -6 -4 -8 -11 -5 -16 4 -5 1 -9 -4 -9 -6
0 -11 5 -11 10 0 6 -5 10 -11 10 -5 0 -7 -5 -3 -12 5 -8 2 -9 -10 -5 -10 4
-22 7 -27 7 -6 0 -8 4 -5 9 3 5 -2 15 -11 22 -14 12 -16 12 -11 -2 5 -14 3
-15 -17 -5 -13 6 -21 14 -19 18 3 5 1 8 -5 8 -6 0 -8 8 -5 18 5 14 3 14 -10
-2 -9 -11 -16 -14 -16 -8 0 7 -5 11 -12 10 -6 -2 -15 8 -19 22 -4 14 -8 21 -8
15 -1 -5 -5 -4 -9 3 -5 7 -25 13 -46 14 -20 1 -32 4 -25 8 8 6 8 9 -2 13 -10
4 -9 6 4 6 9 1 17 -3 17 -9 0 -5 6 -10 13 -10 7 0 13 8 13 18 0 16 -7 18 -38
16 -24 -2 -38 2 -39 9 -1 7 -5 -10 -9 -38 -5 -27 -9 -182 -9 -343 -1 -331 -4
-346 -80 -411 -56 -49 -95 -59 -228 -58 -84 0 -117 -3 -115 -11 2 -14 -25 -16
-30 -3 -5 12 -87 21 -94 10 -3 -6 -11 -5 -20 2 -7 6 -21 9 -29 5 -8 -3 -18 -5
-21 -5 -8 1 -24 -22 -24 -33 0 -5 5 -8 11 -8 5 0 8 4 5 8 -3 5 1 9 9 9 10 0
11 -5 4 -19 -6 -12 -6 -18 1 -19 30 -4 61 -20 55 -29 -3 -5 3 -7 12 -5 10 1
17 7 16 13 -4 17 21 8 45 -16 13 -13 28 -20 35 -15 7 4 7 0 -2 -10 -12 -15
-11 -17 8 -17 11 0 20 -4 19 -9 -2 -5 8 -18 21 -30 19 -16 26 -18 33 -9 6 10
8 9 8 -3 0 -8 -5 -20 -11 -26 -7 -7 -6 -12 5 -16 9 -4 15 -3 15 1 -3 20 2 32
12 27 6 -4 8 -14 4 -23 -3 -9 -3 -13 1 -9 11 10 34 -13 34 -33 0 -10 6 -21 13
-24 6 -3 3 -4 -8 -3 -11 2 -19 9 -17 15 1 7 -5 12 -13 12 -13 0 -14 -4 -5 -20
6 -11 15 -20 21 -20 5 0 14 -10 20 -23 l10 -22 -5 23 c-3 15 1 22 11 22 9 0
13 -6 10 -14 -4 -10 2 -16 16 -19 21 -4 21 -4 -2 -6 -16 -1 -21 -5 -17 -16 6
-16 -9 -21 -19 -5 -3 5 -13 6 -22 3 -11 -4 -14 -3 -9 5 4 7 1 12 -9 12 -9 0
-13 -4 -10 -10 3 -5 0 -7 -8 -4 -9 3 -12 14 -9 30 4 21 1 24 -24 23 l-29 0 25
-11 c21 -9 22 -12 8 -15 -26 -7 -22 -19 12 -33 16 -7 27 -17 24 -22 -4 -6 -9
-6 -13 -1 -10 15 -41 24 -41 11 0 -7 -4 -7 -13 0 -29 24 -155 20 -150 -5 2
-13 -28 -13 -45 0 -9 7 -18 4 -32 -8 -11 -10 -20 -13 -20 -7 0 17 -16 15 -36
-6 -10 -9 -19 -15 -22 -13 -8 8 -42 -24 -42 -40 0 -14 6 -14 58 -4 31 7 76 11
100 10 25 -1 42 3 42 9 0 7 3 7 8 1 8 -11 33 -16 117 -24 17 -1 17 -3 5 -11
-13 -8 -13 -11 -1 -22 11 -10 14 -10 18 0 3 6 14 12 24 12 11 0 18 -4 15 -9
-3 -5 1 -12 10 -15 14 -5 14 -9 3 -23 -8 -9 -9 -14 -3 -10 7 4 17 0 24 -9 7
-8 19 -13 27 -10 8 3 18 -5 25 -20 9 -19 18 -24 35 -21 12 2 20 0 17 -4 -3 -5
1 -9 10 -9 8 0 16 -5 18 -11 3 -9 20 -15 50 -18 4 -1 12 -10 17 -20 14 -25
-12 -36 -34 -15 -15 16 -51 25 -90 25 -11 -1 -32 4 -47 10 -22 9 -30 8 -43 -5
-9 -9 -22 -14 -28 -10 -7 3 -3 -2 7 -10 25 -20 6 -21 -20 -1 -16 13 -17 16 -4
25 8 5 13 10 10 11 -45 8 -63 8 -50 -1 11 -7 11 -10 2 -10 -7 0 -12 -8 -10
-17 2 -10 -5 -19 -16 -21 -14 -3 -17 0 -13 12 9 22 -18 32 -46 18 -33 -16 -57
-22 -57 -15 0 3 8 12 18 20 15 13 15 13 -4 4 -14 -7 -24 -24 -29 -48 -4 -24
-9 -32 -15 -24 -6 11 -9 11 -12 0 -3 -8 -9 -11 -13 -7 -4 4 -2 14 5 23 10 12
10 15 -4 15 -9 0 -16 -5 -16 -12 0 -6 -3 -9 -6 -5 -4 3 -13 0 -21 -8 -15 -16
-38 -21 -29 -7 3 5 -1 9 -9 9 -11 0 -12 -4 -4 -14 9 -10 7 -14 -6 -19 -13 -5
-14 -9 -4 -15 10 -6 9 -10 -5 -15 -10 -4 -21 -2 -25 5 -5 8 -15 9 -32 2 l-24
-10 28 0 c18 -1 27 -6 24 -13 -5 -16 -37 -18 -57 -4 -12 9 -13 8 -4 -4 8 -11
7 -24 -6 -53 -16 -37 -18 -37 -25 -15 -8 22 -8 22 -12 -6 -3 -17 -12 -30 -24
-33 -11 -3 -16 -10 -12 -17 8 -11 9 -16 12 -36 0 -5 9 -10 18 -10 13 0 14 -3
6 -11 -9 -9 -8 -15 2 -25 20 -20 25 -17 25 14 l0 27 13 -25 c14 -28 44 -29 64
-3 6 8 16 12 22 9 6 -4 21 0 34 9 14 9 34 18 46 20 12 2 28 11 36 19 9 8 22
13 30 10 8 -4 15 -2 15 3 0 5 6 10 13 11 42 3 117 16 126 22 9 5 7 16 -6 38
-14 25 -16 35 -6 49 6 10 17 16 25 14 36 -11 158 -30 195 -31 24 0 64 11 95
25 29 14 61 25 71 25 9 0 17 5 17 12 0 6 3 8 7 5 3 -4 12 -2 20 4 10 9 13 8
13 -1 0 -7 7 -10 16 -6 8 3 13 2 10 -3 -11 -17 158 -23 291 -10 126 12 141 11
278 -11 141 -23 145 -23 159 -5 7 10 11 27 8 37 -2 10 2 20 12 24 9 3 13 11 9
17 -3 6 -1 7 6 3 6 -4 18 -3 25 4 16 12 118 16 137 4 8 -5 10 -3 4 6 -6 10 -4
12 8 7 22 -8 32 10 15 30 -8 10 -8 14 -1 10 6 -4 14 -3 18 3 3 5 2 10 -3 10
-5 0 -7 11 -4 25 2 14 8 25 12 25 4 0 7 13 6 30 -1 16 -5 30 -9 30 -4 0 -3 8
2 18 10 19 -10 57 -24 44 -5 -4 -5 -1 -1 6 5 7 14 11 22 8 8 -3 11 0 7 10 -3
7 0 14 6 14 6 0 11 5 11 11 0 5 -4 8 -8 5 -4 -2 -14 -1 -22 5 -11 6 -12 9 -2
9 7 0 10 5 7 10 -3 6 -2 10 4 10 6 0 7 7 4 17 -4 11 -3 14 5 9 7 -4 12 -1 12
9 0 9 4 14 9 11 4 -3 7 5 7 17 -2 26 12 49 25 41 5 -3 9 0 9 5 0 6 -4 11 -10
11 -5 0 -10 4 -10 10 0 5 6 7 14 4 8 -3 17 -1 21 5 4 7 0 8 -11 4 -14 -5 -16
-2 -12 21 3 14 1 29 -3 32 -5 3 -10 -4 -10 -15 -1 -12 -3 -25 -4 -31 -1 -5 -4
-20 -5 -32 -2 -18 -3 -19 -7 -5 -3 10 -9 14 -16 10 -7 -4 -7 0 1 9 7 9 17 29
21 45 4 15 11 26 16 25 15 -7 24 22 12 38 -11 13 -10 13 5 1 10 -7 15 -18 12
-23 -4 -6 2 -6 14 1 14 7 19 19 17 39 -2 22 2 29 14 28 9 -1 15 5 13 14 -2 12
0 12 11 -1 12 -16 15 -15 34 7 12 14 20 31 17 38 -3 8 -1 17 5 21 7 3 8 0 5
-9 -3 -9 -2 -16 4 -16 6 0 13 6 15 13 4 9 6 8 6 -2 1 -11 4 -11 16 -1 8 7 12
17 8 23 -3 6 -1 7 6 3 9 -6 9 -11 0 -22 -8 -10 -8 -14 0 -14 6 0 11 -4 11 -9
0 -5 -8 -7 -18 -4 -12 3 -19 -1 -19 -10 0 -9 6 -13 15 -9 11 4 13 1 7 -8 -5
-8 -4 -11 3 -6 6 3 20 -3 30 -14 l19 -21 -1 23 c-1 20 3 23 29 20 17 -2 27 -1
23 4 -4 4 -3 13 3 21 6 7 8 13 4 13 -4 0 -2 7 5 15 7 8 17 15 23 15 6 0 3 -6
-7 -13 -15 -11 -16 -15 -5 -19 8 -2 22 4 31 13 16 17 16 19 0 29 -10 7 -11 10
-3 7 28 -7 36 -33 17 -53 -16 -15 -16 -19 -4 -28 23 -17 29 -55 10 -65 -10 -4
-23 -7 -30 -5 -7 1 -8 0 -2 -3 5 -2 8 -9 4 -14 -3 -5 0 -9 5 -9 6 0 11 5 11
12 0 6 3 9 6 5 9 -9 36 21 29 33 -3 5 2 10 12 11 10 0 13 3 6 6 -13 5 -18 33
-7 33 4 0 12 -8 19 -17 11 -14 10 -19 -2 -28 -15 -11 -8 -49 7 -40 5 3 12 0
16 -6 5 -9 -2 -10 -27 -6 -19 4 -29 4 -23 -1 6 -4 10 -15 8 -24 -2 -15 1 -16
18 -7 11 6 22 8 25 5 3 -2 -11 -12 -31 -20 -46 -19 -46 -25 2 -21 35 4 35 3
10 -6 -18 -7 -28 -18 -28 -31 0 -20 -1 -20 -18 -5 -21 19 -52 23 -52 6 0 -6 7
-9 15 -5 23 8 59 -39 62 -79 1 -19 -3 -35 -9 -35 -6 0 -7 8 -3 18 5 13 3 14
-5 6 -9 -9 -9 -17 0 -34 7 -13 8 -26 2 -33 -5 -7 -9 -26 -8 -44 0 -17 -1 -30
-4 -28 -3 2 -12 0 -20 -5 -9 -5 -19 -5 -27 2 -9 7 -13 7 -13 -1 0 -6 -6 -11
-14 -11 -8 0 -12 -8 -9 -23 3 -15 -3 -30 -17 -42 -12 -11 -24 -19 -26 -17 -2
1 -12 2 -21 2 -15 0 -16 -2 -3 -10 12 -8 13 -13 2 -30 -10 -16 -10 -20 0 -21
7 0 20 -2 28 -4 10 -1 16 5 16 15 0 12 -5 16 -15 12 -10 -4 -7 5 8 27 16 21
27 29 33 23 6 -6 7 -16 2 -24 -5 -7 -10 -23 -12 -36 -2 -20 0 -23 18 -17 22 7
27 -4 9 -22 -9 -9 -7 -11 7 -9 12 2 18 10 16 21 -3 13 1 15 20 10 13 -4 24
-11 26 -14 1 -4 16 -6 32 -5 17 1 28 -2 25 -6 -3 -5 -1 -11 5 -15 5 -3 10 2
10 12 1 17 1 17 11 1 23 -39 53 7 63 97 3 28 8 73 12 100 3 28 12 86 20 130 8
44 20 105 25 135 16 84 59 219 76 235 8 9 18 13 23 10 5 -3 10 1 13 7 3 9 13
3 31 -15 17 -19 33 -27 44 -23 14 5 13 3 -2 -9 -19 -14 -19 -16 -2 -28 16 -12
16 -13 -3 -13 -12 0 -21 4 -21 8 0 4 -4 8 -10 8 -17 0 -11 -18 8 -24 10 -4 19
-13 19 -21 0 -20 -14 -19 -25 1 -6 10 -12 13 -16 6 -3 -6 1 -18 10 -27 15 -14
14 -17 -6 -35 l-23 -20 21 0 c35 0 25 -20 -10 -21 -18 -1 -25 -3 -15 -6 23 -6
22 -10 -10 -39 l-28 -25 44 21 c24 12 41 16 39 10 -2 -6 -6 -10 -9 -8 -5 3
-59 -48 -59 -57 0 -3 7 -5 15 -5 8 0 15 4 15 9 0 5 7 12 15 15 13 5 12 1 -2
-18 -10 -13 -22 -21 -28 -18 -5 3 -7 2 -3 -3 4 -4 2 -15 -5 -23 -10 -13 -9
-14 10 -4 35 19 40 14 11 -13 -15 -14 -32 -25 -37 -25 -5 0 -12 -4 -16 -9 -3
-6 7 -6 27 -1 39 12 49 5 15 -11 -20 -9 -24 -17 -21 -37 3 -14 7 -29 10 -33 2
-4 -10 -19 -27 -33 -18 -15 -25 -26 -16 -26 8 0 20 7 27 15 7 8 17 15 23 15 5
0 3 -8 -5 -17 -9 -10 -19 -29 -23 -43 -4 -14 -15 -34 -24 -44 -9 -11 -10 -16
-3 -12 18 10 38 -4 21 -15 -10 -6 -10 -9 -2 -9 6 0 14 4 17 8 2 4 23 7 45 5
22 -1 44 3 47 9 4 7 3 8 -4 4 -6 -4 2 18 18 49 16 31 25 53 20 50 -16 -10 -11
12 6 29 11 12 14 28 11 55 -3 30 -1 38 9 34 8 -3 11 -10 8 -17 -3 -6 1 -3 9 6
8 10 18 14 22 10 5 -4 5 -1 1 6 -5 7 -14 11 -22 8 -19 -7 -13 17 7 26 11 4 15
18 14 47 -1 32 2 41 13 36 24 -9 34 6 15 22 -10 8 -12 12 -5 8 6 -3 18 -3 25
2 6 4 21 9 31 10 11 2 22 6 25 10 3 3 -4 4 -16 1 -12 -3 -24 -1 -27 6 -3 7 -5
7 -5 -1 -1 -7 -6 -13 -12 -13 -8 0 -8 5 1 15 7 8 16 13 20 10 5 -3 11 -1 15 5
4 6 11 7 17 4 7 -4 8 -2 4 4 -4 7 -2 12 4 12 6 0 9 4 6 8 -10 16 25 54 45 49
10 -3 18 -2 17 2 -2 22 5 29 27 26 14 -1 28 2 31 6 3 5 -1 9 -8 9 -9 0 -9 3 2
10 21 14 33 12 27 -3 -4 -10 2 -13 21 -10 19 3 23 2 14 -5 -11 -7 -8 -15 12
-38 14 -16 26 -23 26 -16 0 6 9 12 21 12 13 0 18 4 13 12 -4 7 -3 8 4 4 17
-10 15 -26 -3 -26 -9 0 -18 -7 -21 -15 -4 -8 -10 -12 -15 -9 -5 3 -12 -9 -16
-27 -5 -28 -7 -30 -13 -14 -4 11 -2 23 4 27 7 5 4 8 -8 8 -12 0 -16 -5 -12
-16 8 -20 -4 -41 -14 -25 -5 9 -10 8 -18 -2 -9 -10 -4 -13 30 -12 25 1 45 7
53 18 6 9 16 13 20 9 5 -4 5 2 1 12 -5 15 -4 17 8 7 7 -6 22 -8 31 -4 13 4 16
3 11 -5 -4 -7 -2 -12 5 -12 7 0 9 8 6 21 -4 15 -2 19 9 15 9 -3 24 -1 35 4 15
8 19 7 19 -4 0 -9 8 -13 23 -10 12 2 16 2 10 -2 -7 -3 -13 -12 -13 -19 0 -7
-6 -16 -12 -18 -7 -3 -4 -6 7 -6 17 -1 18 -3 5 -11 -11 -7 -5 -8 20 -4 19 3
40 7 46 9 23 7 37 -11 25 -33 -16 -30 -13 -39 5 -16 11 13 14 14 11 3 -3 -9 1
-16 9 -16 9 0 13 6 9 15 -4 12 -2 12 8 4 8 -7 16 -10 19 -7 3 3 11 -1 18 -10
15 -18 34 -20 24 -2 -4 6 4 2 18 -10 13 -13 30 -23 36 -23 6 0 12 10 13 23 4
132 4 157 -2 157 -3 0 -6 11 -7 24 0 13 -11 61 -25 107 -32 105 -47 200 -51
315 -3 77 -13 137 -34 194 -3 8 -6 20 -7 27 -2 6 -22 42 -44 81 -46 77 -96
132 -138 151 -16 8 -37 18 -48 24 -56 30 -143 68 -197 88 -31 10 -39 10 -54
-2 -12 -9 -15 -10 -10 -1 4 7 0 14 -11 18 -24 8 -129 59 -173 84 -19 11 -43
20 -53 20 -10 0 -37 10 -60 22 -23 12 -45 22 -49 23 -3 0 -10 3 -14 8 -11 10
-49 9 -78 -4 -21 -10 -32 -7 -78 19 -91 52 -138 91 -168 139 -26 40 -30 57
-30 116 0 64 3 75 37 125 48 73 73 141 73 202 0 46 2 50 25 50 38 0 62 35 74
108 16 94 30 157 53 229 20 65 22 193 3 193 -5 0 -3 4 5 10 22 14 25 205 4
279 -9 31 -19 61 -22 66 -4 6 -7 15 -8 20 -5 26 -35 85 -44 85 -17 0 -22 -21
-8 -37 11 -15 11 -16 -6 -10 -14 6 -17 4 -12 -9 3 -8 6 -18 6 -20 0 -3 4 -3 8
0 5 3 9 -1 9 -9 0 -8 -4 -12 -9 -9 -4 3 -3 -7 3 -23 8 -23 8 -26 -2 -15 -7 6
-17 12 -22 12 -5 0 -1 -7 7 -16 9 -8 14 -19 11 -24 -3 -5 -1 -11 5 -15 6 -4 8
-11 5 -16 -4 -5 -1 -9 4 -9 6 0 11 -9 11 -20 0 -11 5 -20 11 -20 5 0 7 -4 4
-10 -3 -5 -1 -19 5 -30 6 -11 8 -20 6 -20 -3 0 -13 14 -21 30 -18 36 -40 32
-24 -4 7 -15 8 -30 1 -42 -11 -23 -5 -47 10 -38 7 5 8 2 3 -6 -14 -22 -37 18
-24 42 5 10 6 25 2 32 -7 12 -11 12 -27 0 -17 -12 -18 -14 -3 -14 9 0 17 -5
17 -11 0 -5 -5 -7 -12 -3 -7 4 -8 3 -4 -5 4 -6 2 -19 -6 -28 -9 -12 -9 -15 0
-9 7 4 12 2 12 -4 0 -6 4 -9 9 -5 15 9 23 -14 16 -43 -6 -26 -7 -26 -18 -7 -7
12 -16 20 -22 19 -25 -3 -46 -18 -41 -30 3 -8 3 -14 1 -14 -8 0 -26 41 -31 68
-6 31 -14 42 -14 19 0 -10 -8 -17 -17 -16 -11 0 -13 3 -5 6 14 6 16 33 2 33
-5 0 -10 18 -10 39 0 34 -3 39 -20 36 -16 -3 -20 2 -20 22 0 26 -1 26 -15 7
-8 -10 -15 -14 -15 -8 0 5 5 15 11 21 8 8 8 17 -1 32 -13 25 -32 19 -24 -7 5
-14 4 -14 -4 -3 -13 19 -3 44 15 37 8 -3 19 -6 24 -6 4 0 6 -8 2 -17 -4 -14
-3 -15 6 -7 15 14 3 47 -15 40 -8 -3 -14 -1 -14 5 0 6 -4 8 -9 4 -5 -3 -13 0
-17 6 -4 7 -3 9 3 6 6 -4 16 0 22 7 9 11 9 16 0 22 -8 4 -9 3 -5 -4 4 -7 3
-12 -3 -12 -14 0 -32 35 -23 45 4 5 1 4 -7 0 -11 -6 -13 -4 -8 9 4 10 3 15 -3
11 -6 -3 -10 -1 -10 5 0 6 -11 15 -25 22 -13 6 -23 14 -21 17 2 3 -2 12 -10
19 -12 11 -14 9 -14 -8 0 -11 -5 -20 -11 -20 -5 0 -8 4 -4 9 3 5 -5 17 -17 25
-16 11 -24 12 -29 4 -4 -6 -14 -8 -24 -5 -9 4 -14 11 -11 16 3 4 -2 8 -12 8
-35 0 -43 3 -36 15 5 7 3 8 -6 3 -10 -6 -9 -11 5 -21 20 -15 14 -31 -7 -18
-18 12 -67 17 -50 6 9 -6 5 -12 -14 -21 -22 -10 -26 -9 -21 3 3 8 -1 20 -9 26
-8 7 -14 9 -14 4 0 -4 -7 1 -15 12 -10 13 -14 14 -15 5 0 -11 -3 -11 -17 0
-13 11 -17 11 -20 1 -3 -6 -9 -10 -14 -6 -5 3 -9 -3 -9 -13 0 -15 -2 -15 -9
-3 -6 8 -7 18 -5 22 3 4 -2 5 -11 2 -11 -5 -18 0 -22 15 -6 23 -18 27 -29 9z
m35 -46 c0 -14 -2 -13 -9 3 -5 11 -9 14 -9 8 -1 -7 -6 -13 -12 -13 -8 0 -8 5
1 15 15 18 30 11 29 -13z m-19 -45 c0 -5 -9 1 -20 14 l-19 24 -1 -25 c-1 -14
-4 -19 -7 -12 -3 7 -2 20 1 29 6 14 8 14 26 -2 11 -10 20 -22 20 -28z m150 28
c0 -12 -19 -12 -23 0 -4 9 -1 12 9 8 7 -3 14 -7 14 -8z m-120 -9 c0 -3 -4 -8
-10 -11 -5 -3 -10 -1 -10 4 0 6 5 11 10 11 6 0 10 -2 10 -4z m-155 -176 c-28
-12 -37 -12 -30 0 3 6 16 10 28 9 21 0 21 -1 2 -9z m715 -167 c-11 -17 -11
-17 -6 0 3 10 7 28 7 40 2 22 2 22 6 0 2 -12 -1 -30 -7 -40z m30 -79 c0 -2 -6
-1 -13 2 -7 2 -14 17 -15 32 l-2 27 15 -29 c8 -15 15 -30 15 -32z m167 -14
c-1 -12 -5 -16 -10 -11 -5 5 -6 14 -3 20 11 16 15 13 13 -9z m-371 -4 c10 -8
16 -18 11 -22 -4 -4 -7 -2 -7 4 0 7 -5 12 -11 12 -5 0 -7 -4 -4 -10 6 -9 -8
-14 -27 -11 -13 2 -9 -6 9 -20 11 -10 14 -10 9 -1 -4 6 -3 12 2 12 6 0 13 -7
16 -15 7 -20 -23 -32 -35 -14 -5 8 -9 10 -9 6 0 -5 -5 -5 -12 -1 -18 11 -88 8
-101 -5 -6 -6 -17 -11 -24 -11 -11 0 -11 5 -2 23 7 12 18 26 26 30 7 5 11 12
8 17 -3 4 5 6 17 2 14 -3 19 -2 14 6 -11 18 95 15 120 -2z m304 0 c0 -8 3 -23
6 -33 3 -10 -2 -7 -10 7 -18 30 -20 40 -6 40 6 0 10 -6 10 -14z m60 -36 c5 9
9 8 13 -3 4 -10 0 -14 -11 -13 -9 2 -17 8 -18 15 -2 8 -1 8 3 0 4 -8 7 -8 13
1z m-640 -3 c0 -2 -10 -12 -22 -23 l-23 -19 19 23 c18 21 26 27 26 19z m324
-46 c-8 -8 -43 -8 -38 0 2 4 13 7 24 6 10 -1 17 -3 14 -6z m23 -27 c-3 -3 -12
-4 -19 -1 -8 3 -5 6 6 6 11 1 17 -2 13 -5z m-697 -14 c0 -5 8 -6 18 -3 9 4 3
-5 -14 -20 -17 -14 -42 -29 -57 -32 -31 -8 -77 -50 -103 -94 -10 -17 -25 -31
-34 -32 -11 0 -12 -2 -1 -6 11 -4 11 -7 0 -14 -7 -4 -11 -10 -8 -13 3 -3 28
10 55 29 27 19 59 35 71 35 12 0 34 5 49 10 15 6 61 13 102 16 l75 5 -6 -53
c-7 -71 -32 -121 -68 -137 -16 -7 -27 -16 -24 -21 3 -5 -3 -7 -12 -5 -10 1
-26 -4 -35 -13 -19 -16 -90 -18 -129 -4 -94 37 -155 181 -111 262 29 53 113
100 179 100 29 0 53 -4 53 -10z m615 -29 c19 -12 19 -12 -3 -7 -13 2 -22 2
-19 -1 3 -3 1 -16 -4 -30 l-9 -25 31 27 c25 20 40 25 72 23 39 -3 67 -28 30
-28 -15 0 -16 2 -3 11 12 8 12 10 1 7 -8 -2 -15 -11 -17 -20 -1 -10 3 -15 11
-12 9 4 13 -1 11 -12 -2 -10 -8 -20 -14 -22 -7 -2 -10 -8 -6 -13 9 -16 -34
-66 -76 -88 -28 -14 -59 -21 -99 -21 -50 0 -63 4 -92 30 -24 21 -34 38 -34 59
0 16 2 29 5 28 3 -1 5 3 5 8 0 6 -4 9 -8 7 -4 -1 -3 6 2 17 6 10 7 22 3 26 -4
5 -1 5 6 1 6 -4 12 -2 12 4 0 6 5 8 10 5 6 -3 10 -2 10 4 0 5 21 13 48 16 26
3 56 10 67 14 25 10 34 9 60 -8z m110 9 c-3 -5 -13 -10 -21 -10 -8 0 -12 5 -9
10 3 6 13 10 21 10 8 0 12 -4 9 -10z m-548 -62 c-3 -8 -6 -5 -6 6 -1 11 2 17
5 13 3 -3 4 -12 1 -19z m85 -5 c24 -27 43 -66 53 -108 10 -42 23 -91 29 -106
5 -10 -10 -32 -44 -67 -50 -51 -56 -71 -22 -73 9 0 12 -3 5 -5 -6 -3 -23 2
-38 12 -18 12 -38 15 -70 11 -42 -4 -46 -3 -51 20 -5 17 0 34 16 55 l23 31
-26 -5 -26 -5 34 61 c18 34 37 84 41 111 14 101 31 116 76 68z m163 -213 c10
-16 -20 -41 -33 -28 -6 6 -8 17 -5 24 6 16 29 19 38 4z m212 -7 c-4 -3 0 -15
10 -25 20 -22 16 -22 -31 -3 -44 19 -47 35 -4 35 17 0 28 -3 25 -7z m27 -14
c-3 -5 -10 -7 -15 -3 -5 3 -7 10 -3 15 3 5 10 7 15 3 5 -3 7 -10 3 -15z m-446
-133 c12 0 22 -6 22 -13 0 -7 5 -13 11 -13 5 0 8 -4 5 -9 -7 -11 49 -25 64
-16 5 3 10 -2 10 -13 0 -16 -14 -22 -82 -36 -122 -25 -144 -25 -141 -1 2 11 4
32 5 47 2 16 6 28 11 28 4 0 7 9 7 21 0 18 4 20 33 13 17 -4 42 -8 55 -8z
m236 -104 c3 -5 -1 -9 -9 -9 -8 0 -12 4 -9 9 3 4 7 8 9 8 2 0 6 -4 9 -8z m956
-797 c0 -8 -9 -15 -20 -15 -11 0 -20 -4 -20 -10 0 -14 -27 -13 -36 1 -7 12 15
31 27 23 4 -2 10 0 14 6 10 15 35 12 35 -5z m-411 -66 c-8 -5 -8 -9 0 -13 6
-4 18 -22 26 -39 9 -18 10 -23 3 -13 -7 11 -24 30 -37 43 -13 13 -18 23 -11
23 10 0 9 4 -1 17 -13 15 -12 15 8 2 14 -8 18 -16 12 -20z m358 22 c8 -1 11
-11 9 -23 -2 -14 -10 -22 -20 -22 -9 1 -16 -2 -16 -7 0 -5 7 -9 15 -9 21 0 19
-13 -5 -35 -20 -18 -29 -72 -10 -60 6 3 10 1 10 -5 0 -7 -7 -9 -15 -6 -19 8
-42 14 -35 9 9 -5 -1 -73 -11 -73 -5 0 -9 5 -9 12 0 6 -3 8 -7 5 -3 -4 2 -15
11 -26 11 -12 14 -21 7 -26 -16 -10 -13 -23 7 -27 15 -3 15 -4 1 -10 -9 -4
-28 0 -42 7 -21 11 -25 11 -21 0 6 -15 -15 -32 -25 -19 -6 9 -31 17 -31 10 0
-20 16 -36 35 -36 27 0 85 -61 85 -89 0 -10 -9 -30 -21 -45 l-21 -26 27 -32
c21 -25 25 -38 21 -62 -17 -82 -63 -106 -206 -106 l-100 0 2 183 3 182 84 0
83 0 2 50 c3 65 15 107 29 98 5 -3 7 -1 3 5 -7 12 13 62 26 62 4 0 8 9 8 20 0
11 5 20 10 20 6 0 10 7 10 15 0 21 41 44 73 40 15 -2 27 1 27 7 0 5 -9 6 -20
3 -14 -4 -20 -2 -20 8 0 9 7 14 18 12 9 -2 23 -4 29 -4z m48 -1 c3 -6 -1 -7
-9 -4 -18 7 -21 14 -7 14 6 0 13 -4 16 -10z m304 -7 c-12 -15 -12 -16 4 -10
11 4 16 3 12 -3 -9 -15 -35 -12 -35 3 0 16 9 27 23 27 5 0 3 -8 -4 -17z m66
-3 c3 -6 -1 -7 -9 -4 -18 7 -21 14 -7 14 6 0 13 -4 16 -10z m-845 -15 c11 -13
10 -14 -6 -9 -18 7 -18 7 -1 -13 9 -11 14 -24 10 -28 -5 -5 0 -3 10 4 15 12
17 11 17 -8 0 -19 -3 -20 -21 -11 -11 7 -18 14 -15 17 3 4 0 13 -6 21 -15 17
-19 42 -8 42 4 0 13 -7 20 -15z m750 -20 c0 -9 6 -12 17 -8 10 4 14 2 10 -4
-4 -6 -2 -13 5 -15 7 -3 5 -7 -6 -11 -9 -4 -15 -3 -12 2 3 5 -9 8 -27 8 -19
-1 -34 -6 -34 -13 0 -6 10 -10 21 -8 12 3 15 2 9 -2 -7 -3 -13 -14 -13 -24 0
-10 -4 -22 -10 -25 -6 -4 -7 1 -3 10 5 15 3 15 -15 4 l-22 -14 22 -11 c13 -7
17 -14 9 -18 -6 -4 -11 -2 -11 4 0 6 -8 10 -17 8 -13 -2 -17 3 -15 17 2 11 2
18 0 15 -2 -3 -10 -14 -18 -24 -8 -11 -10 -17 -4 -13 6 3 18 -3 28 -14 16 -20
16 -20 -6 -17 -20 3 -23 -1 -21 -25 1 -19 -3 -27 -12 -25 -8 2 -29 -14 -48
-34 -19 -21 -32 -38 -28 -38 3 -1 -7 -8 -22 -16 -22 -12 -31 -13 -43 -3 -18
15 -13 58 9 74 9 6 14 15 10 18 -3 4 -1 7 6 7 7 0 9 5 6 10 -3 6 1 13 9 16 9
3 16 12 16 20 0 8 7 14 15 14 8 0 15 5 15 10 0 6 1 13 3 17 4 13 59 63 69 63
5 0 7 4 3 9 -7 12 61 35 82 27 12 -5 14 -1 10 14 -3 11 -1 18 4 14 5 -3 9 -12
9 -19z m-2080 -20 c17 -9 30 -22 30 -31 0 -12 -8 -14 -44 -9 -26 4 -46 3 -50
-3 -9 -16 4 -41 25 -47 42 -14 79 -56 79 -90 0 -72 -86 -101 -142 -48 -46 44
-28 59 31 26 24 -14 35 -15 48 -7 31 20 21 47 -25 71 -78 39 -93 84 -41 127
35 30 49 32 89 11z m1384 -30 c3 -8 1 -15 -4 -15 -6 0 -10 7 -10 15 0 8 2 15
4 15 2 0 6 -7 10 -15z m366 -25 c0 -5 -5 -10 -11 -10 -5 0 -7 5 -4 10 3 6 8
10 11 10 2 0 4 -4 4 -10z m-1524 -11 c68 2 84 -20 84 -119 0 -63 -2 -70 -20
-70 -18 0 -20 7 -20 64 0 66 -7 80 -33 70 -10 -3 -17 -27 -22 -70 -6 -54 -10
-64 -26 -64 -17 0 -19 8 -19 64 0 67 -15 94 -45 82 -11 -4 -15 -22 -15 -76 0
-68 -1 -70 -25 -70 l-26 0 3 92 3 93 30 7 c17 3 41 4 55 1 14 -3 48 -5 76 -4z
m1107 -54 c-21 -16 -26 -14 -17 8 3 9 12 13 20 10 12 -4 11 -8 -3 -18z m387
-35 c0 -5 -2 -10 -4 -10 -3 0 -8 5 -11 10 -3 6 -1 10 4 10 6 0 11 -4 11 -10z
m-843 -22 c-3 -8 -6 -5 -6 6 -1 11 2 17 5 13 3 -3 4 -12 1 -19z m161 -70 c7
-7 12 -27 12 -46 0 -32 -1 -33 -36 -30 -48 4 -63 27 -41 62 19 28 45 34 65 14z
m136 6 c14 -5 16 -33 16 -201 l0 -194 -42 3 -43 3 3 175 c1 96 5 185 7 198 5
22 27 28 59 16z m147 -179 c3 -99 9 -188 13 -198 8 -16 4 -18 -35 -15 -40 3
-44 5 -51 38 -8 35 -1 338 9 353 3 5 17 7 31 5 l27 -3 6 -180z m336 153 c-3
-8 -6 -5 -6 6 -1 11 2 17 5 13 3 -3 4 -12 1 -19z m-1358 -20 c-2 -7 5 -31 15
-53 20 -47 18 -69 -9 -73 -19 -3 -19 -2 -2 11 17 14 17 17 1 56 -9 22 -21 41
-26 41 -6 0 -5 6 2 15 15 18 22 19 19 3z m538 -3 c19 -3 44 -20 63 -42 28 -31
31 -42 27 -75 -9 -69 -67 -111 -154 -111 l-53 0 0 -59 0 -59 -37 3 -38 3 -3
165 c-1 90 -1 169 1 175 5 10 135 11 194 0z m1028 -6 c4 -6 1 -9 -6 -8 -8 2
-24 -2 -36 -9 -19 -11 -22 -10 -17 3 3 8 10 13 14 10 5 -3 11 -1 15 5 8 13 22
13 30 -1z m-1678 -42 c-7 -22 -26 -17 -33 7 -3 15 -11 23 -17 19 -6 -3 -7 -1
-3 5 9 14 59 -15 53 -31z m-76 18 c5 4 6 -1 3 -9 -3 -8 2 -16 13 -19 11 -4 9
-5 -7 -4 -17 1 -26 -4 -28 -17 -3 -14 0 -17 12 -13 21 8 20 -2 -1 -19 -16 -12
-15 -12 7 -6 35 10 50 21 89 67 19 22 32 32 28 21 -5 -13 -3 -17 7 -13 8 3 18
-5 25 -21 9 -22 9 -24 -1 -11 -26 31 -46 30 -63 -3 -8 -17 -15 -32 -15 -32 0
-1 18 -2 40 -2 22 -1 40 2 40 6 0 4 7 7 14 7 11 0 13 -5 5 -19 -5 -10 -16 -18
-24 -18 -8 0 -15 -4 -15 -10 0 -5 7 -7 15 -4 9 4 15 0 15 -10 0 -10 8 -16 21
-16 17 0 19 3 10 14 -9 11 -9 16 0 22 8 5 10 3 5 -7 -4 -8 0 -5 8 5 9 11 16
18 17 15 0 -2 2 -14 5 -27 3 -16 0 -21 -8 -16 -7 4 -8 3 -4 -4 4 -7 20 -9 39
-5 50 9 69 22 64 44 -5 20 17 27 28 9 3 -5 1 -10 -4 -10 -6 0 -11 -6 -11 -12
0 -7 -13 -22 -29 -33 -30 -20 -46 -51 -31 -60 5 -3 11 3 13 12 3 12 5 10 6 -7
0 -15 -4 -31 -10 -37 -8 -8 -8 -17 0 -30 6 -13 7 -31 1 -49 -9 -31 -13 -25
-11 16 1 33 -34 136 -45 132 -5 -2 -7 -13 -5 -25 8 -46 6 -72 -6 -73 -7 -1
-14 -2 -15 -4 -2 -1 -11 -3 -21 -5 -14 -3 -15 0 -8 9 8 9 6 12 -7 11 -34 -2
-45 -16 -25 -31 17 -13 17 -13 -1 -14 -18 0 -19 -1 -1 -20 10 -11 15 -23 12
-26 -3 -4 -1 -16 4 -27 10 -18 9 -19 -24 -13 -31 6 -38 3 -48 -16 -11 -22 -11
-22 7 -6 19 17 64 15 64 -3 0 -15 -22 -21 -31 -8 -7 11 -9 11 -9 1 0 -7 -4
-10 -10 -7 -5 3 -10 1 -10 -6 0 -8 11 -10 38 -5 20 4 43 8 51 8 10 1 8 6 -5
16 -19 13 -19 14 0 10 25 -4 29 -18 10 -43 -12 -16 -16 -17 -23 -6 -6 8 -11 9
-15 3 -3 -6 -2 -13 2 -16 5 -3 8 -19 7 -35 -1 -17 2 -28 7 -25 5 3 6 14 3 24
-5 15 2 21 32 29 49 14 60 14 45 -1 -8 -8 -9 -15 -1 -25 9 -10 8 -13 -5 -13
-9 0 -16 7 -16 15 0 8 -7 15 -16 15 -10 0 -14 -6 -11 -15 4 -8 2 -17 -3 -20
-5 -3 -7 -12 -4 -20 4 -10 -1 -13 -23 -10 -15 2 -22 2 -15 -1 10 -5 10 -9 1
-20 -8 -10 -8 -14 0 -14 6 0 11 -7 11 -15 0 -8 -5 -15 -11 -15 -8 0 -8 -4 -1
-13 7 -9 8 -17 1 -27 -8 -12 -12 -12 -16 -2 -8 21 -23 3 -23 -29 0 -20 -4 -28
-12 -23 -6 4 -8 3 -5 -3 4 -6 -6 -13 -21 -16 -16 -3 -33 -15 -38 -26 -7 -15
-13 -18 -24 -11 -13 8 -12 10 3 10 11 0 17 5 14 13 -2 6 -9 11 -14 10 -5 -1
-10 15 -11 35 -2 27 0 33 7 22 9 -13 12 -13 23 -1 11 11 11 13 -1 6 -11 -6
-13 -4 -8 9 5 13 2 15 -18 12 -18 -3 -22 -1 -18 11 5 12 7 12 14 1 7 -10 9
-10 9 0 0 7 -7 15 -15 18 -8 4 -15 11 -15 16 0 6 6 8 13 5 7 -3 21 1 32 9 25
19 45 18 45 -2 0 -10 -5 -14 -16 -10 -10 4 -13 2 -8 -6 5 -8 2 -9 -9 -5 -24 9
-21 0 4 -14 15 -8 19 -8 15 0 -6 10 6 15 27 12 4 -1 1 15 -8 35 -8 20 -12 40
-9 45 3 5 -2 6 -11 3 -11 -5 -13 -10 -5 -19 8 -10 3 -15 -19 -23 -32 -11 -52
0 -28 15 26 15 40 53 26 70 -11 13 -10 14 11 11 19 -2 25 2 26 18 1 11 -5 21
-13 21 -9 0 -10 -4 -3 -11 16 -16 12 -30 -4 -16 -12 9 -18 7 -33 -9 -9 -12
-21 -21 -26 -21 -5 0 -1 7 7 16 9 8 14 20 10 25 -3 5 -2 19 1 30 6 17 9 19 16
8 7 -11 9 -11 9 2 0 16 -32 33 -55 30 -5 -1 4 12 22 28 31 29 31 45 1 38 -7
-2 -10 -2 -5 0 4 3 5 8 2 13 -3 4 5 6 17 4 13 -2 17 -2 11 2 -8 3 -10 12 -5
22 7 14 9 97 3 137 0 6 -9 11 -19 12 -13 1 -18 -6 -18 -28 -1 -19 3 -29 12
-29 8 0 14 -4 14 -10 0 -5 -7 -7 -15 -4 -12 5 -15 -2 -15 -30 0 -20 -5 -36
-11 -36 -6 0 -9 9 -6 20 5 21 -16 29 -28 10 -10 -17 -86 -33 -98 -21 -8 8 -2
11 19 11 33 0 74 24 74 45 0 7 -22 27 -50 45 -27 18 -50 34 -50 36 0 7 67 -20
93 -38 l27 -19 -6 38 c-3 21 -11 41 -18 45 -8 6 -7 8 3 8 9 0 12 8 8 26 -3 18
-1 24 8 20 18 -6 26 19 12 33 -9 9 -8 11 6 6 11 -5 17 -2 18 6 0 11 2 11 6 1
2 -6 9 -10 14 -7z m157 -10 c-3 -3 -9 2 -12 12 -6 14 -5 15 5 6 7 -7 10 -15 7
-18z m192 11 c0 -2 -8 -10 -17 -17 -16 -13 -17 -12 -4 4 13 16 21 21 21 13z
m-59 -20 c12 6 12 5 0 -9 -18 -23 -26 -21 -28 5 -2 16 0 19 6 9 6 -8 14 -10
22 -5z m1523 -27 c69 -25 96 -60 96 -122 0 -76 -70 -147 -145 -147 -64 0 -123
55 -141 132 -9 42 30 114 75 138 46 24 49 24 115 -1z m-1686 -7 c2 -7 -6 -12
-20 -11 -12 0 -17 3 -10 6 6 2 9 9 6 15 -4 6 -1 9 6 6 8 -2 16 -10 18 -16z
m147 -36 c0 -5 9 -12 20 -17 18 -7 18 -8 2 -8 -10 -1 -15 -5 -12 -11 4 -6 -5
-10 -22 -9 -17 1 -21 3 -10 6 9 2 17 9 17 14 0 6 -4 7 -10 4 -11 -7 -11 -6
-15 43 l-3 33 17 -23 c9 -13 16 -27 16 -32z m1894 45 c15 -10 6 -32 -36 -87
-12 -17 -23 -37 -23 -45 0 -8 20 -39 45 -69 l45 -55 -25 -8 c-37 -13 -67 -2
-90 33 -11 16 -22 30 -25 30 -3 0 -16 -16 -30 -35 -22 -30 -31 -34 -67 -35
-46 0 -54 12 -25 39 28 26 72 89 72 103 0 7 -22 38 -49 68 l-49 55 45 3 c41 3
48 0 77 -32 17 -20 34 -36 38 -36 4 0 12 15 18 34 13 40 48 56 79 37z m-1235
-10 c3 -4 9 -65 12 -135 l7 -126 -40 0 c-34 0 -42 4 -47 23 -8 30 -8 232 1
240 9 10 61 9 67 -2z m-608 -13 c4 -7 4 -10 -1 -6 -4 4 -14 0 -21 -10 -12 -16
-13 -16 -14 0 0 9 6 19 13 21 6 3 13 6 14 6 1 1 5 -5 9 -11z m9 -98 c3 -6 -1
-7 -9 -4 -18 7 -21 14 -7 14 6 0 13 -4 16 -10z m-7 -41 c9 -12 9 -16 -1 -16
-7 0 -14 9 -14 20 -1 11 -1 18 0 16 2 -2 8 -11 15 -20z m-332 -76 c-10 -10
-19 5 -10 18 6 11 8 11 12 0 2 -7 1 -15 -2 -18z m233 -9 c-7 -8 -6 -14 1 -19
5 -3 10 -12 10 -18 0 -7 -4 -6 -10 3 -5 8 -10 10 -10 4 0 -13 -33 -14 -41 -1
-4 5 -9 5 -13 -2 -4 -6 -1 -14 8 -17 8 -3 12 -12 9 -20 -3 -8 0 -14 6 -14 6 0
11 -4 11 -8 0 -5 -7 -9 -15 -9 -8 0 -12 3 -10 7 2 3 -3 19 -11 35 -14 27 -14
31 3 42 15 12 18 11 24 -4 4 -12 8 -13 13 -4 4 6 6 18 3 24 -3 7 3 13 14 13
13 0 15 -4 8 -12z m776 -35 c4 -6 12 -8 19 -6 6 2 20 0 31 -5 19 -8 18 -8 -2
-4 -27 5 -39 -23 -24 -52 11 -20 6 -32 -13 -32 -6 0 -10 15 -10 32 1 18 -5 43
-12 56 -8 12 -10 22 -5 22 5 0 13 -5 16 -11z m535 -4 c0 -8 -2 -15 -4 -15 -2
0 -6 7 -10 15 -3 8 -1 15 4 15 6 0 10 -7 10 -15z m-1305 -56 c1 -16 -3 -33 -8
-36 -5 -3 -4 -9 3 -13 8 -5 8 -9 -3 -13 -12 -4 -14 0 -11 21 3 15 7 28 9 31 2
2 0 11 -5 21 -5 10 -6 20 -3 24 10 10 17 -2 18 -35z m-888 16 c0 -8 -4 -12 -9
-9 -4 3 -8 9 -8 15 0 5 4 9 8 9 5 0 9 -7 9 -15z m943 -4 c0 -11 -4 -23 -10
-26 -6 -4 -10 5 -10 19 0 14 5 26 10 26 6 0 10 -9 10 -19z m785 9 c3 -6 -1 -7
-10 -4 -11 5 -14 2 -9 -10 3 -9 11 -13 18 -9 6 4 5 -1 -3 -11 -13 -16 -15 -16
-24 -1 -16 29 11 63 28 35z m150 -20 c-4 -12 -9 -19 -12 -17 -3 3 -2 15 2 27
4 12 9 19 12 17 3 -3 2 -15 -2 -27z m-1860 -26 c9 3 12 -3 10 -20 -1 -13 1
-24 6 -24 5 0 6 -8 3 -17 -5 -15 -4 -16 5 -3 6 8 8 23 5 33 -3 9 -2 17 3 18 4
0 16 2 26 4 9 2 17 -1 17 -7 0 -6 -7 -8 -15 -4 -8 3 -15 1 -15 -3 0 -5 6 -11
13 -14 9 -3 7 -9 -5 -24 -10 -11 -18 -24 -18 -29 0 -5 6 -2 13 7 7 9 22 19 34
23 23 7 26 25 8 38 -6 5 -5 8 3 8 6 0 12 5 12 11 0 5 -4 7 -10 4 -6 -4 -7 1
-3 11 5 13 3 15 -7 9 -9 -5 -11 -4 -6 3 11 18 47 -5 44 -26 -2 -12 3 -16 15
-14 15 3 17 -1 12 -19 -6 -17 -4 -20 6 -13 21 13 88 14 95 2 4 -6 2 -8 -4 -5
-17 11 -42 -4 -42 -24 0 -12 9 -21 25 -25 36 -9 31 -23 -6 -17 -27 4 -29 3
-18 -10 8 -8 22 -13 31 -12 9 2 19 -3 22 -10 3 -10 -2 -12 -20 -9 -14 3 -24 0
-24 -7 0 -7 3 -9 7 -6 7 8 43 -21 43 -35 0 -4 -7 -8 -15 -8 -8 0 -15 5 -15 11
0 5 5 7 12 3 7 -4 8 -3 4 4 -4 6 -13 9 -21 5 -16 -6 -19 -16 -7 -27 12 -13 8
-31 -8 -38 -12 -5 -11 -7 3 -7 11 -1 21 8 24 18 3 12 13 19 24 18 23 -2 25
-13 4 -21 -8 -3 -15 -15 -15 -27 0 -15 -5 -19 -15 -15 -8 3 -15 2 -15 -3 0
-15 13 -21 26 -10 9 7 14 5 19 -10 5 -16 12 -20 30 -15 12 3 26 1 29 -5 5 -7
-3 -11 -19 -11 -18 0 -26 -4 -23 -12 3 -7 13 -41 23 -75 10 -34 22 -60 27 -57
5 3 6 10 3 15 -4 5 -1 9 4 9 15 0 14 -11 -5 -31 -12 -13 -13 -22 -5 -36 10
-17 10 -17 11 0 0 15 3 15 20 5 17 -11 18 -23 2 -23 -18 -1 -61 -38 -55 -48 4
-6 10 -5 17 4 12 17 56 23 56 8 0 -5 -6 -9 -12 -9 -14 -1 -58 -34 -58 -44 0
-3 14 -3 31 -1 30 4 31 3 13 -16 -18 -20 -18 -20 -45 8 -17 19 -22 30 -15 35
8 6 8 8 0 8 -12 0 -25 30 -28 61 0 9 -6 22 -12 30 -6 8 -12 22 -13 32 -3 39
-5 47 -12 47 -4 0 -10 16 -13 36 -5 24 -12 34 -20 31 -9 -4 -12 1 -9 13 3 11
-2 26 -10 35 -9 8 -14 24 -12 35 2 12 -2 20 -10 20 -16 0 -28 28 -18 43 4 8 1
7 -9 -1 -13 -10 -17 -8 -28 19 -8 17 -24 42 -37 55 -13 13 -21 29 -18 34 3 6
1 10 -5 10 -13 0 -40 25 -40 36 0 4 -8 16 -17 27 -10 11 -12 17 -5 13 7 -4 12
-2 12 4 0 8 -9 10 -23 6 -19 -4 -22 -1 -23 23 -2 28 -1 28 18 9 11 -11 26 -17
33 -14z m1815 6 c0 -5 -5 -10 -11 -10 -5 0 -7 5 -4 10 3 6 8 10 11 10 2 0 4
-4 4 -10z m-1627 -34 c-3 -4 -9 -2 -14 5 -13 22 -11 31 5 17 8 -7 12 -17 9
-22z m447 24 c0 -5 -4 -10 -10 -10 -5 0 -10 5 -10 10 0 6 5 10 10 10 6 0 10
-4 10 -10z m1990 0 c0 -5 -2 -10 -4 -10 -3 0 -8 5 -11 10 -3 6 -1 10 4 10 6 0
11 -4 11 -10z m-1708 -32 c-9 -9 -12 -7 -12 12 0 19 3 21 12 12 9 -9 9 -15 0
-24z m1702 -15 c-14 -14 -34 -10 -34 7 0 5 8 6 18 3 15 -6 16 -5 2 12 -14 17
-14 17 6 5 19 -12 20 -16 8 -27z m50 29 c3 -5 -1 -9 -9 -9 -8 0 -12 4 -9 9 3
4 7 8 9 8 2 0 6 -4 9 -8z m40 -27 c-4 -8 -11 -12 -17 -8 -8 5 -7 8 1 11 7 2 9
9 6 14 -4 7 -2 8 4 4 6 -4 9 -13 6 -21z m41 15 c-3 -5 -12 -10 -18 -10 -7 0
-6 4 3 10 19 12 23 12 15 0z m-2510 -39 c3 -5 1 -12 -5 -16 -5 -3 -10 1 -10 9
0 18 6 21 15 7z m419 -36 c-4 -8 -11 -12 -17 -8 -8 5 -7 8 1 11 7 2 9 9 6 14
-4 7 -2 8 4 4 6 -4 9 -13 6 -21z m262 -12 c-11 -11 -17 4 -9 23 7 18 8 18 11
1 2 -10 1 -21 -2 -24z m-56 -33 c16 0 -4 -51 -24 -63 -21 -12 -32 -47 -15 -47
5 0 6 -7 3 -15 -4 -9 0 -15 7 -15 9 -1 7 -6 -5 -15 -25 -19 -36 -19 -36 1 0 8
4 13 9 9 6 -3 9 3 8 14 -1 16 -5 17 -25 10 -30 -12 -32 -11 -32 5 0 8 6 14 13
13 43 -1 46 2 41 45 -3 23 -7 45 -10 49 -9 15 14 18 26 4 9 -10 9 -15 1 -15
-6 0 -11 -7 -11 -15 0 -21 17 -19 30 5 7 14 8 26 0 39 -5 11 -10 23 -9 28 0 4
5 -2 11 -14 6 -13 14 -23 18 -23z m18 22 c6 -18 -15 -14 -22 4 -4 10 -1 14 6
12 6 -2 14 -10 16 -16z m42 -12 c0 -5 -5 -10 -11 -10 -5 0 -7 5 -4 10 3 6 8
10 11 10 2 0 4 -4 4 -10z m1905 1 c3 -6 -4 -9 -15 -8 -11 1 -20 5 -20 9 0 11
28 10 35 -1z m-1908 -58 c1 -24 1 -25 -7 -8 -11 26 -12 35 -2 35 4 0 8 -12 9
-27z m-47 -14 c-7 -11 -14 -18 -17 -15 -3 3 0 12 7 21 18 21 23 19 10 -6z
m510 -30 c0 -5 -7 -9 -15 -9 -15 0 -20 12 -9 23 8 8 24 -1 24 -14z m-500 1 c0
-5 -8 -10 -17 -10 -15 0 -16 2 -3 10 19 12 20 12 20 0z m37 -37 c-3 -10 -5 -2
-5 17 0 19 2 27 5 18 2 -10 2 -26 0 -35z m-627 8 c0 -12 -20 -25 -27 -18 -7 7
6 27 18 27 5 0 9 -4 9 -9z m481 -28 c-11 -5 -11 -7 0 -14 10 -6 6 -9 -14 -9
-16 0 -26 -4 -22 -10 3 -5 14 -10 23 -10 10 0 23 -9 30 -20 11 -18 10 -19 -14
-10 -32 12 -37 12 -29 1 3 -5 1 -12 -5 -16 -5 -3 -10 -2 -10 2 0 13 -51 8 -59
-6 -6 -10 -10 -9 -14 2 -7 17 16 41 27 29 4 -4 6 -2 4 5 -1 6 -1 10 2 10 3 -1
19 10 35 26 16 15 37 27 45 26 12 0 12 -2 1 -6z m42 -57 c4 -10 1 -13 -9 -9
-7 3 -14 9 -14 14 0 14 17 10 23 -5z m58 -13 c2 1 1 -2 -4 -8 -5 -6 -11 -4
-17 5 -15 23 -11 37 4 18 7 -10 15 -17 17 -15z m-564 -5 c-3 -8 -6 -5 -6 6 -1
11 2 17 5 13 3 -3 4 -12 1 -19z m1918 -7 c3 -5 1 -12 -5 -16 -5 -3 -10 1 -10
9 0 18 6 21 15 7z m-1385 -11 c0 -5 -7 -10 -15 -10 -8 0 -15 -4 -15 -10 0 -13
-90 -7 -115 8 -19 11 -19 12 5 9 14 -1 30 -6 37 -10 6 -4 14 -3 18 3 3 5 11
10 16 10 6 0 7 -4 4 -10 -9 -15 8 -12 31 5 23 17 34 19 34 5z m-165 -32 c19 2
19 1 1 -6 -18 -8 -19 -9 -2 -15 10 -4 24 -3 30 2 14 12 75 11 82 -1 3 -4 -2
-8 -11 -8 -8 0 -24 -6 -35 -12 -17 -11 -22 -10 -30 2 -8 13 -10 12 -10 -2 0
-10 -7 -18 -16 -18 -9 0 -14 5 -12 12 3 7 -7 23 -21 36 -14 13 -19 20 -11 16
8 -5 24 -8 35 -6z m670 -8 c-3 -5 -11 -10 -16 -10 -6 0 -7 5 -4 10 3 6 11 10
16 10 6 0 7 -4 4 -10z m-515 -3 c0 -2 -10 -12 -21 -23 -22 -19 -22 -19 -8 4
12 19 29 30 29 19z m-777 -28 c4 -15 2 -19 -9 -15 -8 3 -14 0 -15 -7 0 -9 -2
-9 -6 0 -3 9 13 40 23 43 1 0 4 -9 7 -21z m821 3 c2 -4 -5 -9 -17 -9 -17 -2
-19 0 -7 7 18 12 18 12 24 2z m926 4 c0 -3 -4 -8 -10 -11 -5 -3 -10 -1 -10 4
0 6 5 11 10 11 6 0 10 -2 10 -4z m-1030 -21 c-10 -12 -9 -15 4 -15 10 0 15 -4
12 -9 -3 -5 -15 -7 -27 -4 -12 4 -25 0 -30 -8 -6 -10 -9 -10 -9 -1 0 6 -4 12
-9 12 -5 0 -7 -9 -4 -20 3 -11 1 -20 -4 -20 -5 0 -9 10 -8 23 1 12 8 22 16 22
8 0 25 8 39 18 30 21 36 22 20 2z m40 -33 c-12 -14 -28 -27 -36 -28 -9 -1 -14
0 -11 3 3 2 9 5 14 5 11 1 39 41 35 51 -1 5 2 6 8 2 6 -4 3 -16 -10 -33z m988
26 c5 -19 1 -39 -7 -33 -5 3 -12 1 -16 -5 -3 -6 1 -13 9 -16 9 -3 16 -17 16
-31 0 -21 -3 -23 -22 -17 -13 4 -28 7 -35 7 -7 0 -10 4 -7 9 8 13 42 10 47 -4
3 -8 6 -6 6 5 1 9 -10 23 -24 29 -14 6 -25 15 -25 20 0 5 4 7 8 4 4 -2 14 0
22 5 13 8 13 10 0 19 -8 5 -21 8 -27 5 -7 -2 -13 0 -13 6 0 12 64 8 68 -3z
m-1699 -29 c-16 -10 -23 -4 -14 10 3 6 11 8 17 5 6 -4 5 -9 -3 -15z m576 11
c-3 -5 -12 -10 -18 -10 -7 0 -6 4 3 10 19 12 23 12 15 0z m1431 1 c-3 -5 1
-11 9 -15 22 -8 18 -25 -5 -23 -14 1 -18 7 -15 22 5 26 4 25 11 25 3 0 3 -4 0
-9z m-1396 -60 c0 -6 -5 -13 -12 -17 -6 -4 -8 -3 -4 4 3 5 0 13 -6 15 -8 3 -6
6 5 6 9 1 17 -3 17 -8z m74 -20 c-5 -5 -20 -12 -34 -15 -24 -7 -24 -6 -6 8 10
9 23 13 27 10 5 -3 9 0 9 7 0 7 3 9 7 6 4 -4 2 -11 -3 -16z m-64 -15 c0 -2 -7
-7 -16 -10 -8 -3 -12 -2 -9 4 6 10 25 14 25 6z m-860 -11 c0 -9 -44 -45 -54
-45 -6 1 3 12 19 25 31 26 35 28 35 20z m923 -22 c-7 -2 -19 -2 -25 0 -7 3 -2
5 12 5 14 0 19 -2 13 -5z m-1083 -46 c0 -2 -9 -12 -19 -21 -19 -17 -19 -17
-14 3 3 12 12 21 19 21 8 0 14 -2 14 -3z m1045 -7 c3 -5 1 -10 -4 -10 -6 0
-11 5 -11 10 0 6 2 10 4 10 3 0 8 -4 11 -10z m-1245 -177 c0 -5 -4 -14 -9 -21
-7 -11 -9 -11 -14 1 -3 8 -3 18 0 21 9 8 23 7 23 -1z m75 -63 c3 -5 1 -10 -4
-10 -6 0 -11 5 -11 10 0 6 2 10 4 10 3 0 8 -4 11 -10z"/>
<path d="M1820 4883 c0 -6 -15 -9 -35 -7 -40 3 -40 -11 0 -18 24 -5 54 16 41
29 -3 3 -6 2 -6 -4z"/>
<path d="M1755 4840 c-3 -6 1 -7 9 -4 18 7 21 14 7 14 -6 0 -13 -4 -16 -10z"/>
<path d="M1695 4829 c-4 -6 -4 -13 -1 -16 3 -4 6 -1 6 5 0 6 8 13 18 15 15 4
15 5 0 6 -9 0 -20 -4 -23 -10z"/>
<path d="M1618 4783 c7 -3 16 -2 19 1 4 3 -2 6 -13 5 -11 0 -14 -3 -6 -6z"/>
<path d="M3015 3540 c3 -5 8 -10 11 -10 2 0 4 5 4 10 0 6 -5 10 -11 10 -5 0
-7 -4 -4 -10z"/>
<path d="M2760 3179 l0 -42 56 7 c67 8 74 11 74 36 0 26 -30 40 -84 40 l-46 0
0 -41z"/>
<path d="M2762 3043 c3 -46 5 -48 34 -51 18 -2 47 1 65 6 27 6 35 14 37 36 5
38 -22 55 -86 56 l-53 0 3 -47z"/>
<path d="M3293 3505 c0 -8 4 -12 9 -9 5 3 6 10 3 15 -9 13 -12 11 -12 -6z"/>
<path d="M3177 3350 c-9 -11 -13 -20 -7 -20 5 0 14 9 20 20 6 11 9 20 8 20 -2
0 -11 -9 -21 -20z"/>
<path d="M3130 3300 c-9 -6 -10 -10 -3 -10 6 0 15 5 18 10 8 12 4 12 -15 0z"/>
<path d="M2000 3155 l0 -45 49 0 c69 0 81 6 81 45 0 39 -12 45 -81 45 l-49 0
0 -45z"/>
<path d="M1448 3129 c6 -7 12 -21 12 -32 0 -12 -4 -16 -12 -11 -10 6 -10 5 -1
-7 7 -8 11 -35 10 -60 -2 -37 1 -44 18 -47 18 -2 20 3 20 48 1 47 -8 66 -17
38 -3 -7 -7 -6 -11 5 -5 13 -1 17 14 17 17 0 18 3 9 20 -6 11 -20 25 -33 31
-18 9 -20 9 -9 -2z m23 -122 c-10 -9 -11 -8 -5 6 3 10 9 15 12 12 3 -3 0 -11
-7 -18z"/>
<path d="M1533 3092 c-11 -8 -13 -62 -2 -62 14 0 20 20 7 21 -7 0 -4 4 7 8 11
5 25 4 33 -2 7 -5 15 -7 19 -3 3 3 1 6 -6 6 -7 0 -9 5 -5 12 4 6 3 8 -4 4 -6
-3 -17 0 -25 8 -7 8 -18 11 -24 8z"/>
<path d="M1553 3029 c-22 -6 -31 -15 -30 -28 1 -12 6 -17 15 -14 11 5 11 7 0
14 -7 5 -11 9 -8 10 31 5 41 8 57 18 22 12 10 13 -34 0z"/>
<path d="M1570 3000 c-9 -6 -10 -10 -3 -10 6 0 15 5 18 10 8 12 4 12 -15 0z"/>
<path d="M1475 2943 c-29 -7 -40 -20 -15 -18 11 1 26 7 32 13 7 7 10 11 8 11
-3 -1 -14 -3 -25 -6z"/>
<path d="M1509 2900 c-4 -25 -3 -30 6 -30 6 0 11 9 11 20 1 20 -15 29 -17 10z"/>
<path d="M1407 2865 c-4 -8 3 -10 19 -7 29 5 30 8 5 15 -11 3 -22 -1 -24 -8z"/>
<path d="M1500 2760 c-8 -5 -10 -10 -5 -10 6 0 17 5 25 10 8 5 11 10 5 10 -5
0 -17 -5 -25 -10z"/>
<path d="M1521 2711 c-7 -5 -11 -15 -9 -22 3 -8 -2 -20 -9 -28 -8 -7 -11 -16
-8 -19 8 -8 34 31 28 42 -3 4 1 12 8 17 7 4 11 10 8 13 -2 3 -11 1 -18 -3z"/>
<path d="M1495 2610 c-4 -6 -10 -8 -14 -5 -5 2 -7 -6 -7 -18 1 -12 -2 -27 -6
-34 -5 -6 -5 -14 2 -18 5 -3 11 2 11 12 3 43 5 48 16 46 6 -1 14 4 17 12 6 17
-9 21 -19 5z"/>
<path d="M1425 2540 c-16 -7 -17 -9 -3 -9 9 -1 20 4 23 9 7 11 7 11 -20 0z"/>
<path d="M1425 2510 c4 -6 11 -8 16 -5 14 9 11 15 -7 15 -8 0 -12 -5 -9 -10z"/>
<path d="M3119 3108 c-35 -58 -9 -118 52 -118 57 0 79 81 34 125 -33 34 -61
32 -86 -7z"/>
<path d="M914 2748 c-5 -7 -3 -8 6 -3 7 4 15 2 20 -5 5 -8 9 -7 13 4 8 19 -28
23 -39 4z"/>
<path d="M857 2736 c-4 -10 -1 -13 8 -9 8 3 12 9 9 14 -7 12 -11 11 -17 -5z"/>
<path d="M900 2710 c0 -5 -5 -9 -11 -7 -6 1 -14 -4 -16 -11 -4 -11 -1 -12 16
-3 19 10 29 31 16 31 -3 0 -5 -4 -5 -10z"/>
<path d="M878 2643 c6 -2 18 -2 25 0 6 3 1 5 -13 5 -14 0 -19 -2 -12 -5z"/>
<path d="M948 2603 c6 -2 9 -10 6 -15 -4 -7 -2 -8 4 -4 18 11 14 26 -5 25 -11
0 -13 -3 -5 -6z"/>
<path d="M1010 2476 c0 -9 5 -16 10 -16 6 0 10 4 10 9 0 6 -4 13 -10 16 -5 3
-10 -1 -10 -9z"/>
<path d="M1015 2430 c3 -5 10 -10 16 -10 5 0 9 5 9 10 0 6 -7 10 -16 10 -8 0
-12 -4 -9 -10z"/>
<path d="M1033 2383 c0 -7 4 -13 8 -13 4 0 9 6 12 13 3 8 0 14 -7 14 -7 0 -13
-6 -13 -14z"/>
<path d="M1057 2353 c-4 -3 -7 -11 -7 -17 0 -6 5 -5 12 2 6 6 9 14 7 17 -3 3
-9 2 -12 -2z"/>
<path d="M1065 2321 c-3 -5 -1 -12 5 -16 5 -3 10 1 10 9 0 18 -6 21 -15 7z"/>
<path d="M1050 2280 c0 -14 28 -19 33 -6 3 6 -4 13 -14 13 -10 1 -19 -2 -19
-7z"/>
<path d="M1480 2470 c-9 -6 -10 -10 -3 -10 6 0 15 5 18 10 8 12 4 12 -15 0z"/>
<path d="M1489 2367 c7 -7 14 -8 21 -1 6 6 2 10 -12 11 -16 2 -18 -1 -9 -10z"/>
<path d="M2621 5616 c-9 -10 -6 -19 10 -37 l20 -24 -5 27 c-4 16 -1 28 6 30 8
3 6 7 -4 11 -9 3 -21 0 -27 -7z"/>
<path d="M4158 5513 c-2 -10 -1 -56 2 -103 l7 -85 1 103 c2 99 -1 121 -10 85z"/>
<path d="M3077 5514 c-15 -15 -6 -43 16 -49 39 -11 102 -39 115 -52 31 -30 60
-35 206 -36 110 -1 157 2 175 12 18 10 79 14 237 15 l214 1 11 27 c21 51 11
62 -66 70 -39 3 -250 7 -470 7 -220 0 -407 2 -416 6 -8 3 -18 2 -22 -1z"/>
<path d="M2478 5374 c-3 -5 -2 -18 2 -28 3 -11 9 -15 12 -10 3 5 2 18 -2 28
-3 11 -9 15 -12 10z"/>
<path d="M2646 5351 c-4 -5 -2 -12 3 -15 5 -4 12 -2 15 3 4 5 2 12 -3 15 -5 4
-12 2 -15 -3z"/>
<path d="M2610 5315 c0 -2 6 -8 13 -14 10 -8 14 -7 14 2 0 8 -6 14 -14 14 -7
0 -13 -1 -13 -2z"/>
<path d="M3258 5158 c-18 -12 -28 -29 -28 -45 0 -23 -3 -24 -27 -18 -32 9 -34
9 -90 7 l-43 -2 0 -95 0 -94 303 -3 c166 -1 338 -1 382 0 44 2 130 4 190 5
l110 2 3 62 c2 52 -1 66 -18 83 -11 11 -30 20 -43 20 -13 0 -34 12 -48 26 -23
26 -26 26 -113 20 -74 -5 -93 -10 -118 -31 -33 -28 -49 -30 -112 -13 -37 10
-48 18 -62 50 -9 21 -24 40 -33 42 -9 3 -63 5 -121 5 -89 0 -109 -3 -132 -21z"/>
<path d="M4163 4950 c0 -36 2 -50 4 -32 2 17 2 47 0 65 -2 17 -4 3 -4 -33z"/>
<path d="M3267 4821 l-58 -6 33 -17 c64 -32 106 -36 398 -36 268 -1 317 -4
373 -27 13 -6 20 1 33 30 28 68 44 66 -358 63 -200 -1 -389 -4 -421 -7z"/>
<path d="M4163 4775 c0 -33 2 -45 4 -27 2 18 2 45 0 60 -2 15 -4 0 -4 -33z"/>
<path d="M430 4643 c0 -5 4 -14 9 -22 6 -9 3 -30 -7 -56 -8 -23 -12 -50 -8
-60 11 -30 29 -2 36 57 4 29 10 61 15 71 6 14 2 17 -19 17 -14 0 -26 -3 -26
-7z"/>
<path d="M88 4474 c-15 -8 -29 -10 -32 -5 -3 4 -17 6 -31 3 l-25 -4 0 -364 0
-364 37 0 c45 0 162 -20 184 -31 22 -11 29 -99 30 -384 0 -156 4 -237 12 -252
9 -17 11 60 9 348 l-3 369 26 55 c53 112 97 125 418 125 201 0 244 -3 274 -16
36 -18 113 -90 113 -107 0 -6 13 4 29 22 32 36 32 71 -1 71 -28 0 -89 30 -110
54 -10 11 -18 35 -18 55 0 49 -24 81 -59 81 -30 0 -41 18 -41 71 0 15 -7 30
-15 33 -31 12 -202 19 -208 9 -4 -6 -1 -35 5 -64 26 -127 -35 -207 -110 -144
-35 29 -52 26 -52 -10 0 -26 -5 -28 -90 -40 -25 -3 -65 -13 -90 -21 -73 -25
-124 -28 -153 -9 -14 9 -24 22 -21 28 3 8 -7 12 -28 12 -30 0 -33 3 -41 45
-10 55 -3 199 13 260 16 65 24 155 14 173 -8 13 -12 13 -36 1z m772 -326 c0
-62 -14 -92 -30 -68 -11 17 -14 103 -3 113 3 4 12 7 20 7 9 0 13 -15 13 -52z"/>
<path d="M3715 4461 c-82 -33 -135 -93 -135 -152 0 -10 -11 -26 -25 -35 -23
-15 -29 -15 -87 4 -56 17 -76 19 -183 11 -66 -5 -136 -12 -155 -17 l-35 -8 -2
-99 c-1 -84 -11 -160 -29 -222 -1 -6 -23 -15 -49 -18 -25 -4 -47 -11 -50 -15
-12 -19 97 -23 632 -24 l573 -1 -1 90 c-1 79 -2 85 -11 53 -11 -41 -34 -54
-70 -41 -13 4 -57 8 -98 8 l-75 0 -3 105 -3 105 41 37 c46 42 49 65 21 130
-19 46 -63 75 -146 97 -50 14 -60 13 -110 -8z m46 -243 c21 -6 41 -18 43 -27
3 -9 6 -55 8 -104 2 -101 -6 -115 -70 -124 -62 -8 -84 19 -106 136 -20 102
-18 108 36 121 47 11 47 11 89 -2z m-583 -30 c28 -35 25 -143 -5 -173 -21 -21
-29 -19 -42 13 -13 30 -13 42 -7 111 5 53 31 77 54 49z"/>
<path d="M2020 4406 c0 -8 -6 -17 -12 -19 -8 -3 -6 -6 5 -6 11 -1 17 6 17 19
0 11 -2 20 -5 20 -3 0 -5 -6 -5 -14z"/>
<path d="M1236 4331 c-14 -22 23 -59 45 -45 5 3 9 16 9 30 0 19 -5 24 -24 24
-14 0 -27 -4 -30 -9z"/>
<path d="M515 4240 c-4 -6 -1 -17 5 -26 14 -16 40 -2 40 22 0 16 -36 19 -45 4z"/>
<path d="M1340 4169 c0 -56 -2 -62 -37 -94 -34 -31 -36 -36 -25 -59 12 -28 40
-34 60 -14 7 7 12 9 12 5 0 -4 8 -3 18 2 16 9 18 20 14 93 -2 46 -8 93 -13
105 -16 42 -29 24 -29 -38z"/>
<path d="M1727 4130 c17 -14 94 -43 99 -37 11 11 -7 27 -30 27 -12 0 -26 3
-30 7 -3 4 -15 7 -27 8 -11 1 -16 -1 -12 -5z"/>
<path d="M1513 3979 c5 -28 12 -31 31 -10 16 18 16 19 -8 23 -20 4 -25 1 -23
-13z"/>
<path d="M1445 3930 c-7 -12 2 -12 30 0 19 8 19 9 -2 9 -12 1 -25 -3 -28 -9z"/>
<path d="M1363 3895 c-29 -13 -53 -26 -53 -29 0 -6 28 6 90 36 54 27 22 21
-37 -7z"/>
<path d="M430 3889 c-42 -17 -70 -50 -85 -103 -28 -93 -47 -86 225 -86 265 0
244 -5 299 68 28 37 105 75 139 69 22 -4 22 -4 5 16 -38 42 -70 47 -320 46
-133 0 -249 -5 -263 -10z m378 -86 c3 -23 2 -23 -107 -23 -110 0 -129 6 -117
36 5 12 25 14 113 12 103 -3 108 -4 111 -25z"/>
<path d="M1470 3890 c-8 -5 -10 -10 -5 -10 6 0 17 5 25 10 8 5 11 10 5 10 -5
0 -17 -5 -25 -10z"/>
<path d="M1377 3848 c-32 -17 -56 -33 -53 -35 4 -4 85 35 116 56 30 21 -7 8
-63 -21z"/>
<path d="M1545 3870 c3 -5 8 -10 11 -10 2 0 4 5 4 10 0 6 -5 10 -11 10 -5 0
-7 -4 -4 -10z"/>
<path d="M1431 3819 c-41 -21 -80 -44 -85 -49 -6 -6 27 8 74 32 47 23 94 46
105 49 l20 7 -20 0 c-11 0 -54 -18 -94 -39z"/>
<path d="M1521 3813 c-5 -10 -13 -18 -18 -17 -16 1 -83 -29 -83 -38 0 -5 -4
-6 -10 -3 -5 3 -10 2 -10 -4 0 -5 -9 -13 -20 -16 -11 -3 -20 -11 -20 -16 0
-10 132 57 141 73 3 5 8 9 10 8 9 -3 39 13 39 21 0 15 -19 10 -29 -8z"/>
<path d="M1547 3775 c-8 -8 -17 -11 -21 -8 -3 3 -8 -2 -12 -11 -3 -9 -12 -16
-20 -16 -8 0 -14 -5 -14 -11 0 -5 -4 -8 -9 -5 -5 3 -27 -8 -50 -24 -45 -33
-56 -51 -14 -23 14 9 32 18 39 19 14 2 134 82 134 89 0 10 -19 4 -33 -10z"/>
<path d="M1052 3750 c0 -14 2 -19 5 -12 2 6 2 18 0 25 -3 6 -5 1 -5 -13z"/>
<path d="M1165 3761 c-3 -5 -1 -12 5 -16 5 -3 10 1 10 9 0 18 -6 21 -15 7z"/>
<path d="M1567 3733 c-20 -16 -57 -43 -82 -61 -25 -18 -45 -38 -45 -45 0 -7 3
-8 8 -2 4 6 33 27 65 49 31 21 57 43 57 48 0 5 5 6 10 3 6 -3 13 1 16 9 3 9
11 13 17 9 6 -3 7 -1 3 5 -9 16 -8 16 -49 -15z"/>
<path d="M975 3720 c-3 -5 -1 -10 4 -10 6 0 11 5 11 10 0 6 -2 10 -4 10 -3 0
-8 -4 -11 -10z"/>
<path d="M1018 3713 c7 -3 16 -2 19 1 4 3 -2 6 -13 5 -11 0 -14 -3 -6 -6z"/>
<path d="M1283 3678 c-11 -18 -13 -39 -3 -33 5 3 10 0 12 -7 3 -8 7 -6 11 5 4
11 1 17 -9 17 -8 0 -12 5 -9 10 4 6 11 7 17 4 7 -4 8 -2 4 4 -9 15 -13 15 -23
0z"/>
<path d="M337 3383 c4 -259 8 -339 21 -347 4 -2 8 12 10 31 1 25 -1 32 -10 27
-10 -6 -11 -4 0 7 6 7 12 17 12 22 0 4 -6 5 -12 1 -10 -6 -10 -4 -2 7 6 8 11
34 13 59 1 25 7 66 13 91 6 26 8 55 3 65 -5 11 -9 41 -10 69 -2 51 11 75 39
75 9 0 16 5 16 11 0 8 15 10 45 7 29 -4 42 -2 38 5 -3 6 -1 7 5 3 15 -9 5 -33
-16 -41 -15 -6 -15 -8 3 -22 20 -15 20 -15 -2 -8 -17 5 -23 2 -24 -9 -1 -9 -2
-22 -3 -28 -1 -7 3 -16 9 -20 6 -5 5 -8 -3 -8 -9 0 -10 -5 -3 -17 5 -10 5 -26
0 -41 -5 -13 -5 -21 -1 -18 5 3 8 -6 8 -20 -1 -14 -8 -29 -16 -34 -13 -8 -12
-10 3 -10 9 0 16 -3 16 -7 -3 -20 3 -23 21 -13 14 7 20 7 20 0 0 -5 -4 -10 -8
-10 -5 0 -16 -6 -27 -13 -16 -13 -15 -14 13 -9 l31 4 0 139 c1 157 7 178 68
228 64 52 156 39 228 -32 30 -30 34 -60 35 -226 2 -141 -1 -176 -14 -196 -69
-105 -207 -123 -275 -36 -16 20 -31 46 -35 59 -8 25 -28 29 -45 8 -9 -11 -9
-16 0 -22 7 -4 9 -3 5 4 -10 17 7 22 22 6 11 -12 9 -16 -9 -23 l-23 -8 22 -5
c14 -4 20 -2 15 4 -3 7 -1 8 5 4 14 -8 4 -36 -11 -32 -7 1 -9 1 -4 -1 4 -3 4
-10 1 -15 -4 -6 1 -17 11 -25 11 -7 14 -13 7 -13 -6 0 -1 -10 11 -23 21 -21
44 -16 30 7 -4 5 9 -2 28 -16 28 -21 46 -26 107 -27 115 -4 200 8 205 28 4 14
5 14 6 -1 2 -26 54 -4 91 38 l30 35 -1 262 c0 226 -3 264 -17 280 -15 16 -15
17 1 11 13 -4 17 -1 17 15 0 21 -1 21 -358 21 l-358 0 3 -257z m597 196 c4 6
19 10 34 10 17 -1 21 -3 9 -6 -9 -2 -15 -9 -11 -14 3 -5 8 -7 12 -5 4 2 14 -3
22 -12 13 -14 12 -15 -3 -9 -11 4 -20 1 -23 -8 -4 -8 -10 -15 -15 -15 -4 0 -6
7 -3 15 9 22 -5 37 -21 22 -11 -10 -10 -17 7 -44 11 -18 15 -33 9 -33 -6 0
-11 5 -11 10 0 6 -4 10 -10 10 -5 0 -10 -7 -10 -15 0 -13 -4 -14 -20 -5 -11 6
-18 15 -15 21 4 5 -1 12 -9 15 -23 9 -20 21 11 50 18 16 29 21 33 13 6 -8 9
-8 14 0z m-379 -539 c3 -5 -1 -10 -9 -10 -9 0 -16 5 -16 10 0 6 4 10 9 10 6 0
13 -4 16 -10z"/>
<path d="M898 3516 c-3 -14 -2 -26 3 -26 14 0 20 20 11 36 -8 14 -10 12 -14
-10z"/>
<path d="M1340 3620 c0 -5 5 -10 11 -10 5 0 7 5 4 10 -3 6 -8 10 -11 10 -2 0
-4 -4 -4 -10z"/>
<path d="M1415 3620 c-3 -5 -1 -10 4 -10 6 0 11 5 11 10 0 6 -2 10 -4 10 -3 0
-8 -4 -11 -10z"/>
<path d="M622 3512 c-31 -29 -41 -62 -40 -132 0 -35 1 -35 39 -32 l39 4 0 49
c0 49 0 49 34 49 30 0 34 -4 40 -31 3 -17 6 -42 6 -55 0 -21 5 -24 41 -24 l41
0 -4 73 c-4 97 -34 127 -121 127 -35 0 -51 -6 -75 -28z"/>
<path d="M2566 3531 c-3 -5 1 -11 9 -14 9 -4 12 -1 8 9 -6 16 -10 17 -17 5z"/>
<path d="M2586 3485 c4 -8 8 -15 10 -15 2 0 4 7 4 15 0 8 -4 15 -10 15 -5 0
-7 -7 -4 -15z"/>
<path d="M1654 3359 c-10 -18 13 -32 40 -25 37 9 34 36 -3 36 -17 0 -33 -5
-37 -11z"/>
<path d="M584 3238 c4 -18 9 -51 10 -73 2 -22 4 -46 5 -53 0 -7 22 -22 48 -34
39 -17 52 -19 83 -9 21 6 49 20 64 32 24 19 26 26 26 94 l0 73 -41 0 -41 1 4
-43 3 -43 -42 -2 -43 -2 0 46 0 45 -41 0 c-41 0 -41 0 -35 -32z m40 -93 c3 -8
1 -15 -4 -15 -6 0 -10 7 -10 15 0 8 2 15 4 15 2 0 6 -7 10 -15z m16 -29 c0 -3
-4 -8 -10 -11 -5 -3 -10 -1 -10 4 0 6 5 11 10 11 6 0 10 -2 10 -4z"/>
<path d="M500 3170 c-12 -8 -9 -10 13 -10 15 0 27 5 27 10 0 13 -20 13 -40 0z"/>
<path d="M291 3005 c-2 -24 41 -76 78 -95 53 -26 66 -26 21 1 -35 22 -55 41
-84 82 -8 12 -15 18 -15 12z"/>
<path d="M445 2880 c27 -12 43 -12 25 0 -8 5 -22 9 -30 9 -10 0 -8 -3 5 -9z"/>
<path d="M448 2853 c7 -3 16 -2 19 1 4 3 -2 6 -13 5 -11 0 -14 -3 -6 -6z"/>
<path d="M2340 2830 c-6 -11 -7 -20 -2 -20 6 0 12 9 15 20 3 11 3 20 1 20 -2
0 -8 -9 -14 -20z"/>
<path d="M2511 2814 c0 -11 3 -14 6 -6 3 7 2 16 -1 19 -3 4 -6 -2 -5 -13z"/>
<path d="M2260 2780 c0 -5 5 -10 11 -10 5 0 7 5 4 10 -3 6 -8 10 -11 10 -2 0
-4 -4 -4 -10z"/>
<path d="M2540 2774 c0 -8 5 -12 10 -9 6 4 8 11 5 16 -9 14 -15 11 -15 -7z"/>
<path d="M3249 2785 c-1 -3 -2 -8 -3 -12 -1 -5 -5 -13 -9 -20 -4 -6 -3 -14 2
-17 12 -8 19 4 16 27 -3 14 1 17 18 12 17 -5 19 -4 7 4 -16 12 -29 14 -31 6z"/>
<path d="M2890 2760 c0 -5 5 -10 10 -10 6 0 10 5 10 10 0 6 -4 10 -10 10 -5 0
-10 -4 -10 -10z"/>
<path d="M2415 2750 c3 -5 8 -10 11 -10 2 0 4 5 4 10 0 6 -5 10 -11 10 -5 0
-7 -4 -4 -10z"/>
<path d="M3191 2747 c-8 -10 -7 -14 2 -14 8 0 14 6 14 14 0 7 -1 13 -2 13 -2
0 -8 -6 -14 -13z"/>
<path d="M3278 2753 c7 -3 16 -2 19 1 4 3 -2 6 -13 5 -11 0 -14 -3 -6 -6z"/>
<path d="M3290 2728 c0 -4 4 -8 9 -8 6 0 12 4 15 8 3 5 -1 9 -9 9 -8 0 -15 -4
-15 -9z"/>
<path d="M4107 2721 c-10 -12 -9 -13 3 -7 9 4 8 2 -2 -7 -10 -8 -15 -17 -11
-20 3 -4 1 -7 -5 -7 -6 0 -18 -12 -26 -27 l-15 -28 -1 25 c0 19 -2 22 -9 10
-6 -8 -7 -18 -4 -24 3 -5 1 -6 -5 -2 -6 4 -9 14 -6 24 2 9 -3 4 -11 -13 -13
-24 -15 -25 -11 -7 3 15 0 22 -7 19 -7 -2 -13 -18 -15 -36 -3 -25 0 -31 10
-26 7 3 5 0 -4 -8 -10 -8 -14 -18 -10 -23 4 -5 -3 0 -16 10 -12 11 -25 16 -29
13 -3 -4 0 -7 7 -7 11 0 11 -3 2 -12 -8 -8 -15 -8 -24 0 -10 7 -21 4 -43 -14
-16 -14 -23 -24 -15 -22 8 2 22 11 31 20 9 10 19 15 23 11 11 -11 6 -23 -10
-23 -9 0 -12 -5 -8 -12 4 -7 4 -10 -1 -6 -4 4 -16 3 -26 -2 -13 -8 -20 -6 -28
7 -10 17 -10 17 -11 1 0 -10 -4 -18 -9 -18 -5 0 -17 -3 -26 -6 -9 -4 -15 -3
-14 2 3 20 -2 34 -12 34 -5 0 -7 -5 -3 -12 5 -8 2 -9 -11 -5 -9 4 -25 2 -33
-5 -12 -10 -14 -10 -8 0 4 7 1 12 -9 12 -9 0 -13 -5 -9 -11 4 -7 0 -9 -12 -5
-11 3 -26 1 -34 -5 -12 -9 -12 -10 4 -5 14 5 17 2 12 -10 -3 -8 -6 -20 -6 -25
0 -6 -8 -9 -17 -7 -10 1 -24 -1 -30 -5 -9 -5 -13 -3 -13 7 0 11 9 16 28 16 19
0 23 3 13 9 -8 5 -11 17 -8 27 5 14 2 13 -9 -3 -9 -13 -26 -23 -38 -23 -20 0
-61 -20 -42 -20 5 0 -3 -9 -17 -20 -14 -11 -28 -20 -31 -20 -3 0 3 9 14 20 11
11 20 28 19 38 0 13 -2 12 -9 -5 -8 -19 -14 -22 -40 -17 -19 4 -30 2 -30 -5 0
-6 -9 -20 -19 -30 -16 -16 -20 -17 -25 -5 -4 10 -2 12 6 8 7 -4 8 -3 4 5 -9
13 -31 10 -31 -5 0 -13 -38 -54 -50 -54 -5 0 -3 5 5 10 13 8 13 11 1 22 -11
10 -12 10 -7 0 5 -7 -1 -16 -16 -21 -13 -6 -18 -10 -11 -10 7 -1 10 -8 7 -16
-4 -10 -14 -13 -29 -9 -13 3 -26 1 -29 -4 -4 -6 3 -8 16 -4 12 3 19 1 15 -4
-3 -6 -2 -16 3 -23 6 -11 17 -7 51 16 84 56 139 69 139 33 0 -11 -4 -20 -9
-20 -5 0 -13 -10 -17 -22 -4 -13 -14 -28 -23 -35 -14 -10 -12 -12 12 -18 15
-4 36 -5 47 -2 11 3 18 2 15 -3 -3 -4 20 -7 50 -7 40 1 52 4 44 13 -7 8 -2 10
18 6 16 -3 22 -7 16 -9 -25 -9 11 -29 60 -36 27 -4 54 -10 60 -14 19 -12 37
-12 37 -1 0 6 -7 8 -15 4 -8 -3 -15 -1 -15 3 0 16 31 21 36 6 4 -8 10 -15 16
-15 5 0 7 4 3 9 -3 5 -1 12 5 16 5 3 10 -1 10 -9 0 -13 24 -33 40 -34 18 -2
39 -16 34 -24 -3 -5 -16 -2 -31 7 -24 16 -25 16 -18 -4 7 -24 3 -26 -28 -10
-18 9 -20 9 -10 -1 13 -14 6 -43 -9 -34 -6 4 -5 10 3 15 11 7 10 9 -3 9 -9 0
-24 3 -34 7 -11 4 -15 3 -11 -4 4 -6 0 -13 -8 -17 -8 -3 -18 1 -22 8 -5 7 -20
16 -35 19 -29 8 -52 -8 -63 -43 -3 -11 -11 -20 -16 -20 -5 0 -9 -4 -9 -10 0
-5 6 -7 14 -4 19 7 32 -16 15 -26 -7 -5 -20 -5 -30 0 -13 7 -29 -4 -73 -50
-31 -33 -61 -60 -66 -60 -6 0 -10 -7 -10 -15 0 -15 -12 -20 -23 -9 -3 3 26 38
64 77 38 40 69 76 69 80 0 4 12 19 26 32 15 14 22 25 16 25 -5 0 -21 -13 -34
-28 -19 -23 -26 -26 -36 -16 -6 7 -10 26 -8 42 5 47 -26 33 -104 -48 -38 -40
-73 -71 -76 -67 -8 7 14 47 26 47 6 0 10 6 10 14 0 7 11 21 25 30 14 9 25 21
25 26 0 16 -51 -20 -105 -76 -27 -28 -62 -59 -77 -68 -25 -16 -28 -17 -28 -2
0 9 -4 16 -9 16 -12 0 -24 -37 -17 -49 3 -5 -1 -11 -9 -15 -17 -6 -30 10 -15
19 16 10 12 25 -5 19 -9 -4 -15 0 -15 9 0 8 5 17 12 19 7 3 8 10 3 17 -6 11
-10 10 -17 -2 -5 -9 -17 -14 -29 -12 -17 3 -19 2 -9 -10 7 -8 17 -12 23 -8 6
3 7 1 3 -6 -4 -6 -13 -11 -19 -10 -25 3 -38 -1 -32 -11 3 -5 -4 -19 -15 -30
-29 -29 -36 -20 -8 9 l21 23 -22 -7 c-12 -3 -21 -2 -21 4 0 5 10 11 22 13 12
2 23 10 25 18 4 12 3 12 -5 2 -8 -11 -10 -11 -15 1 -3 8 -17 17 -31 19 -14 3
-23 1 -20 -3 3 -5 0 -9 -5 -9 -6 0 -11 -6 -11 -13 0 -18 -40 -19 -47 -1 -3 7
-9 11 -14 8 -5 -3 -7 -9 -4 -14 7 -12 -28 -22 -51 -14 -17 6 -17 5 -4 -9 13
-14 22 -15 80 -3 48 10 67 11 72 2 11 -16 10 -26 -2 -26 -5 0 -9 3 -7 8 4 12
-12 15 -44 8 -17 -3 -28 -10 -24 -16 3 -6 0 -7 -9 -4 -11 4 -19 -2 -26 -20 -5
-14 -12 -26 -15 -26 -4 0 -3 6 0 13 4 6 0 4 -8 -5 -17 -21 -27 -14 -27 21 0
20 -2 23 -10 11 -5 -8 -7 -22 -5 -31 4 -12 -2 -16 -22 -17 -16 0 -39 -2 -52
-4 -13 -2 -26 3 -28 10 -3 7 4 12 16 12 12 0 21 5 21 10 0 14 -31 9 -47 -7 -7
-6 -13 -16 -13 -22 0 -6 -4 -11 -10 -11 -5 0 -10 4 -10 10 0 17 23 60 33 60 5
0 4 7 -3 15 -7 8 -17 15 -22 15 -6 0 -5 -7 2 -15 8 -10 9 -15 2 -15 -6 0 -16
8 -21 18 -10 16 -10 16 -11 0 0 -21 -11 -23 -30 -5 -12 10 -12 9 0 -6 7 -10
20 -15 28 -12 28 10 33 -7 10 -33 -13 -14 -16 -22 -8 -17 8 5 12 4 7 0 -8 -10
21 -45 37 -45 6 0 4 4 -4 10 -12 8 -12 10 3 16 12 4 24 -1 36 -15 12 -14 22
-18 26 -11 3 5 1 10 -5 10 -6 0 -8 5 -5 10 11 17 21 11 23 -15 1 -14 -2 -25
-6 -25 -4 0 -22 -13 -41 -29 -19 -17 -40 -27 -45 -23 -7 4 -4 8 7 10 9 2 15 8
11 13 -3 6 0 16 6 24 10 12 6 13 -22 9 -25 -5 -38 -1 -48 12 -14 16 -13 16 8
5 34 -18 42 -3 12 21 -14 11 -24 27 -22 35 5 21 -17 43 -42 43 -12 0 -27 5
-34 10 -9 7 -9 7 -2 -2 6 -7 10 -20 10 -29 0 -10 6 -19 12 -21 7 -3 -2 -10
-20 -16 -31 -10 -32 -10 -32 15 0 19 4 24 16 19 8 -3 12 -2 9 4 -11 18 -25 11
-36 -17 -8 -22 -12 -24 -20 -13 -8 13 -10 13 -18 0 -14 -21 -3 -31 26 -24 18
5 24 4 19 -5 -4 -6 -12 -9 -17 -6 -5 4 -9 2 -9 -4 0 -5 5 -13 12 -17 8 -5 6
-11 -7 -20 -15 -11 -16 -16 -5 -29 11 -13 7 -15 -25 -15 -33 0 -36 -2 -24 -16
11 -14 11 -18 -2 -28 -9 -6 -14 -18 -12 -26 3 -10 -2 -8 -12 5 -12 15 -13 21
-3 25 17 6 17 25 0 42 -10 10 -14 10 -21 -1 -5 -8 -17 -11 -32 -7 -21 6 -21 5
-6 -4 18 -12 15 -30 -6 -30 -7 0 -6 4 3 10 12 8 10 10 -8 10 -13 0 -20 4 -17
10 3 6 1 10 -4 10 -6 0 -11 -4 -11 -10 0 -5 -11 -10 -25 -10 -14 0 -25 -4 -25
-9 0 -12 -74 -5 -78 8 -2 5 -10 7 -19 4 -12 -5 -14 -3 -8 7 6 10 4 11 -6 4 -8
-4 -25 -7 -38 -5 -15 2 -21 -1 -17 -8 5 -7 -8 -11 -38 -11 -44 0 -46 -1 -46
-27 0 -22 2 -25 10 -13 8 13 10 12 10 -4 0 -11 3 -16 7 -13 3 4 12 2 20 -4 9
-9 13 -8 13 0 0 6 5 11 11 11 5 0 7 -6 3 -12 -5 -9 -2 -9 9 1 13 10 17 10 17
1 0 -10 3 -10 15 0 12 10 15 10 15 -1 0 -11 2 -11 10 1 9 13 10 13 10 0 0 -13
1 -13 10 0 6 10 10 11 10 3 0 -7 5 -13 11 -13 5 0 7 6 3 13 -6 9 -4 9 8 -1 14
-11 18 -10 27 5 6 10 11 13 11 7 0 -13 58 -13 77 -1 6 4 14 3 18 -3 3 -5 11
-10 16 -10 6 0 8 4 5 8 -2 4 4 14 15 20 16 10 20 10 18 0 -1 -7 3 -25 11 -40
11 -23 10 -29 -4 -43 -9 -9 -16 -12 -16 -6 0 6 -17 10 -37 10 -31 -2 -33 -3
-10 -6 50 -8 28 -18 -33 -15 -33 2 -60 8 -60 13 0 5 -5 9 -11 9 -5 0 -8 -4 -5
-8 3 -5 -23 -9 -57 -9 -60 0 -60 1 -9 4 89 7 59 24 -38 21 -67 -1 -90 -5 -90
-15 0 -7 -9 -13 -20 -13 -15 0 -20 -7 -20 -26 0 -16 4 -23 11 -18 11 6 -7 -36
-20 -46 -7 -6 -44 -82 -45 -92 -1 -3 -4 -9 -8 -13 -11 -11 2 -34 16 -29 7 3
29 -11 50 -31 21 -19 42 -35 47 -35 5 0 9 -10 9 -22 0 -15 3 -19 8 -11 5 8 16
0 32 -24 23 -33 25 -35 28 -15 4 25 12 27 31 9 11 -10 13 -9 7 6 -11 32 6 41
20 11 9 -19 12 -21 8 -6 -4 18 -1 22 19 22 13 0 34 -11 47 -25 29 -31 90 -68
90 -54 0 5 -10 23 -22 39 -26 36 -14 57 23 44 13 -4 31 -7 40 -6 9 2 21 -4 28
-12 7 -8 21 -12 32 -9 12 4 25 0 31 -8 7 -11 11 -11 15 -1 2 6 11 12 19 12 8
0 11 6 7 17 -5 13 -2 15 18 10 13 -4 51 -12 84 -18 33 -7 63 -15 68 -18 4 -4
4 -21 1 -38 -6 -33 -28 -38 -45 -12 -7 11 -9 11 -9 0 0 -10 -5 -10 -25 3 -32
21 -41 16 -48 -29 -7 -40 -22 -59 -55 -67 -17 -5 -22 -2 -20 10 2 11 -3 16
-14 14 -9 -1 -23 7 -31 19 -15 20 -15 20 -21 1 -6 -17 -45 -53 -82 -75 -6 -3
-21 3 -32 14 -12 11 -22 15 -22 9 0 -5 -7 -10 -15 -10 -9 0 -15 -7 -13 -17 2
-12 -10 -22 -40 -33 -42 -16 -42 -17 -20 -27 22 -10 21 -11 -19 -23 l-43 -13
-52 51 c-30 29 -65 60 -78 69 -14 9 -27 20 -30 23 -6 9 -53 20 -105 26 -22 2
-46 6 -53 9 -8 3 -16 -3 -19 -15 -3 -11 -11 -20 -18 -20 -7 0 -16 -7 -19 -16
-3 -8 -10 -12 -16 -9 -6 4 -13 -7 -16 -24 -4 -16 -15 -39 -25 -50 -21 -22 -25
-51 -8 -51 5 0 8 -4 4 -10 -3 -5 -12 -7 -20 -3 -11 4 -13 1 -9 -11 4 -11 1
-16 -10 -16 -13 0 -15 -4 -7 -18 6 -11 6 -24 0 -33 -6 -10 -9 -10 -9 -1 0 6
-7 12 -15 12 -11 0 -12 -5 -6 -23 5 -13 6 -29 2 -36 -6 -9 -10 -6 -14 10 -4
13 -9 21 -12 17 -3 -3 -1 -17 4 -32 9 -23 8 -26 -12 -26 -20 -1 -20 -2 -5 -11
22 -12 24 -55 3 -63 -20 -7 -19 -26 1 -26 12 0 5 -11 -20 -35 -21 -19 -42 -35
-48 -35 -6 0 -8 -10 -4 -24 4 -18 1 -28 -11 -35 -10 -6 -12 -11 -5 -11 6 0 12
-6 12 -14 0 -8 6 -16 13 -19 7 -2 8 -8 3 -13 -5 -5 -11 -4 -13 4 -8 21 -25 13
-18 -9 5 -15 4 -19 -4 -15 -6 4 -11 15 -11 24 0 14 -2 15 -10 2 -6 -9 -5 -17
3 -22 7 -4 8 -8 2 -8 -5 0 -3 -5 5 -10 13 -8 12 -10 -4 -10 -14 0 -17 -5 -12
-25 4 -14 2 -25 -4 -25 -5 0 -10 -4 -10 -9 0 -6 19 -11 43 -13 34 -2 42 -7 42
-23 1 -29 15 -47 32 -41 8 3 11 1 8 -5 -4 -5 -15 -7 -26 -4 -13 4 -19 2 -19
-9 0 -9 -8 -16 -17 -16 -14 0 -15 -2 -4 -9 9 -6 12 -20 9 -40 -2 -17 0 -32 6
-34 8 -3 8 -8 0 -18 -21 -26 -24 -59 -6 -59 14 0 14 -2 3 -9 -8 -5 -12 -18 -8
-30 3 -12 1 -19 -4 -16 -8 6 -12 -6 -23 -72 l-5 -33 1319 0 1320 0 0 1370 0
1370 -26 -2 c-14 -2 -31 -9 -37 -17z m43 3 c0 -8 -19 -13 -24 -6 -3 5 1 9 9 9
8 0 15 -2 15 -3z m-56 -70 c3 -8 2 -12 -4 -9 -6 3 -10 10 -10 16 0 14 7 11 14
-7z m-144 -108 c0 -3 -4 -8 -10 -11 -5 -3 -10 -1 -10 4 0 6 5 11 10 11 6 0 10
-2 10 -4z m-194 -37 c3 -6 1 -15 -5 -20 -6 -5 -9 -6 -6 -3 3 4 0 13 -6 21 -8
9 -8 13 -1 13 6 0 14 -5 18 -11z m-29 -15 c-3 -3 -12 -4 -19 -1 -8 3 -5 6 6 6
11 1 17 -2 13 -5z m-144 -35 c4 -3 -3 -10 -16 -16 -23 -11 -24 -10 -13 12 6
13 13 21 16 17 3 -4 9 -9 13 -13z m-93 -3 c0 -2 -7 -6 -15 -10 -8 -3 -15 -1
-15 4 0 6 7 10 15 10 8 0 15 -2 15 -4z m125 -26 c-3 -5 -12 -10 -18 -10 -7 0
-6 4 3 10 19 12 23 12 15 0z m65 -158 c0 -13 -12 -22 -22 -16 -10 6 -1 24 13
24 5 0 9 -4 9 -8z m120 -2 c0 -5 -7 -7 -15 -4 -8 4 -15 8 -15 10 0 2 7 4 15 4
8 0 15 -4 15 -10z m110 -46 c0 -8 -5 -12 -10 -9 -6 4 -8 11 -5 16 9 14 15 11
15 -7z m-220 -65 c0 -7 -12 -22 -26 -36 -25 -23 -25 -23 -19 -1 12 37 45 64
45 37z m-168 -17 c-7 -2 -10 -8 -6 -13 3 -5 -2 -12 -10 -15 -9 -3 -16 -12 -16
-20 0 -8 -7 -14 -15 -14 -21 0 -19 13 5 35 11 10 20 24 20 31 0 8 6 11 17 7
11 -4 13 -8 5 -11z m18 -56 c0 -14 -48 -62 -58 -58 -4 1 -7 -2 -7 -7 0 -5 -11
-19 -25 -30 -14 -11 -31 -26 -38 -32 -7 -6 -16 -8 -20 -4 -4 4 -1 10 6 12 10
4 9 9 -4 24 -20 23 -12 26 10 4 13 -14 19 -11 51 22 21 21 43 51 51 66 14 27
34 29 34 3z m175 14 c3 -5 1 -10 -4 -10 -6 0 -11 5 -11 10 0 6 2 10 4 10 3 0
8 -4 11 -10z m-251 -39 c3 -4 3 -11 0 -14 -8 -8 -34 3 -34 14 0 11 27 12 34 0z
m140 -7 c23 -9 20 -23 -4 -21 -11 1 -20 7 -20 14 0 15 2 15 24 7z m61 -14 c3
-5 1 -10 -4 -10 -6 0 -11 5 -11 10 0 6 2 10 4 10 3 0 8 -4 11 -10z m-329 -37
c-11 -11 -17 4 -9 23 7 18 8 18 11 1 2 -10 1 -21 -2 -24z m104 27 c12 -8 9
-10 -12 -10 -16 0 -28 5 -28 10 0 13 20 13 40 0z m-370 -19 c0 -5 -6 -11 -12
-14 -18 -6 -39 3 -32 14 7 12 44 12 44 0z m510 -2 c0 -16 -58 -71 -64 -60 -3
5 1 11 9 15 8 3 20 17 27 31 11 25 28 34 28 14z m-270 -7 c0 -13 -23 -32 -37
-32 -8 0 -23 -9 -35 -20 -18 -16 -19 -20 -5 -20 8 0 18 -4 21 -9 7 -10 -9 -8
-36 4 -20 8 -24 25 -8 25 6 0 16 5 23 10 59 49 77 59 77 42z m64 -28 c3 -8 2
-12 -4 -9 -6 3 -10 10 -10 16 0 14 7 11 14 -7z m-226 -20 c-2 -8 -7 -15 -13
-15 -5 -1 -15 -5 -22 -10 -7 -7 -14 -6 -18 1 -3 5 1 10 10 10 8 0 18 7 21 15
8 20 26 19 22 -1z m192 12 c0 -2 -7 -7 -16 -10 -8 -3 -12 -2 -9 4 6 10 25 14
25 6z m-320 -26 c0 -6 -12 -15 -26 -20 -32 -12 -34 -12 -34 1 0 5 4 8 9 5 5
-3 14 1 21 9 14 17 30 20 30 5z m370 3 c0 -5 -11 -13 -25 -20 -29 -13 -33 -6
-7 13 19 15 32 18 32 7z m-732 -15 c14 -14 16 -28 2 -28 -5 0 -14 9 -20 20
-12 22 -1 27 18 8z m852 4 c0 -5 -11 -18 -25 -30 -28 -25 -33 -17 -9 16 15 22
34 30 34 14z m-85 -12 c-3 -5 -13 -10 -22 -10 -9 0 -13 -6 -9 -15 6 -16 -9
-21 -19 -6 -3 5 5 17 17 25 25 18 42 21 33 6z m130 -10 c3 -5 1 -10 -4 -10 -6
0 -11 5 -11 10 0 6 2 10 4 10 3 0 8 -4 11 -10z m-415 -20 c8 -5 11 -10 5 -10
-5 0 -17 5 -25 10 -8 5 -10 10 -5 10 6 0 17 -5 25 -10z m165 0 c3 -5 1 -10 -4
-10 -6 0 -11 5 -11 10 0 6 2 10 4 10 3 0 8 -4 11 -10z m-648 -56 c-7 -7 -46
35 -47 51 0 5 12 -3 27 -17 15 -15 24 -30 20 -34z m193 20 c0 -21 -4 -33 -10
-29 -5 3 -10 19 -10 36 0 16 5 29 10 29 6 0 10 -16 10 -36z m79 15 c3 -12 2
-12 -12 -1 -13 11 -17 10 -27 -8 -6 -11 -8 -25 -5 -30 3 -6 -1 -10 -10 -10
-12 0 -15 5 -11 16 3 9 6 22 6 29 0 25 50 29 59 4z m436 11 c3 -5 -1 -10 -10
-10 -9 0 -13 5 -10 10 3 6 8 10 10 10 2 0 7 -4 10 -10z m85 -3 c0 -8 -11 -19
-25 -25 -33 -15 -35 -15 -35 4 0 8 4 13 9 10 5 -3 14 1 21 9 15 19 30 19 30 2z
m-846 -13 c6 -14 4 -15 -9 -4 -14 12 -15 10 -10 -13 4 -16 3 -27 -3 -27 -15 0
-21 37 -9 49 15 15 24 14 31 -5z m506 -4 c-9 -6 -9 -9 1 -13 10 -4 9 -6 -3 -6
-20 -1 -21 0 -12 23 3 9 11 13 16 10 6 -4 6 -9 -2 -14z m420 10 c0 -5 -4 -10
-10 -10 -5 0 -10 5 -10 10 0 6 5 10 10 10 6 0 10 -4 10 -10z m-450 -4 c0 -3
-4 -8 -10 -11 -5 -3 -10 -1 -10 4 0 6 5 11 10 11 6 0 10 -2 10 -4z m57 -28
c-3 -7 -5 -2 -5 12 0 14 2 19 5 13 2 -7 2 -19 0 -25z m-224 2 c3 -11 1 -20 -4
-20 -5 0 -9 9 -9 20 0 11 2 20 4 20 2 0 6 -9 9 -20z m587 10 c0 -5 -2 -10 -4
-10 -3 0 -8 5 -11 10 -3 6 -1 10 4 10 6 0 11 -4 11 -10z m-497 -17 c-7 -2 -21
-2 -30 0 -10 3 -4 5 12 5 17 0 24 -2 18 -5z m377 -2 c0 -5 -7 -11 -15 -15 -15
-5 -20 5 -8 17 9 10 23 9 23 -2z m-40 -15 c0 -3 -4 -8 -10 -11 -5 -3 -10 -1
-10 4 0 6 5 11 10 11 6 0 10 -2 10 -4z m-705 -16 c10 16 25 12 25 -7 0 -9 10
-27 22 -40 12 -13 17 -23 12 -23 -17 0 -31 15 -38 38 -7 22 -26 31 -26 12 0
-5 -5 -10 -11 -10 -5 0 -7 5 -4 10 3 6 -1 10 -10 10 -9 0 -13 5 -10 10 5 8 11
8 20 0 9 -8 15 -8 20 0z m85 -59 c-1 -12 -3 -11 -12 4 -6 11 -17 24 -25 28 -7
4 -13 13 -13 19 0 6 11 1 25 -12 14 -13 25 -31 25 -39z m95 39 c3 -5 2 -10 -4
-10 -5 0 -13 5 -16 10 -3 6 -2 10 4 10 5 0 13 -4 16 -10z m59 -5 c4 -13 2 -14
-14 -5 -23 13 -26 20 -6 20 8 0 16 -7 20 -15z m-334 -40 c0 -20 -29 -40 -41
-28 -7 7 -5 14 5 22 8 7 12 20 9 29 -6 15 -5 15 10 3 9 -7 17 -19 17 -26z
m105 14 c6 -6 5 -13 -5 -19 -8 -5 -11 -10 -7 -10 5 0 5 -5 2 -10 -4 -6 -11 -8
-16 -4 -6 4 -6 11 2 20 17 21 3 29 -16 10 -20 -20 -26 -20 -19 -1 7 17 -11 21
-22 4 -4 -8 -9 -7 -15 2 -5 8 -9 17 -9 20 0 9 94 -1 105 -12z m405 17 c0 -2
-6 -9 -14 -15 -11 -9 -16 -9 -22 0 -4 7 -3 9 4 5 6 -3 13 -2 17 4 6 10 15 14
15 6z m-250 -15 c0 -11 -58 -12 -65 -1 -3 4 11 8 30 8 19 0 35 -3 35 -7z m115
-9 c-3 -3 -11 0 -18 7 -9 10 -8 11 6 5 10 -3 15 -9 12 -12z m-75 0 c0 -5 -7
-9 -15 -9 -8 0 -12 4 -9 9 3 4 9 8 15 8 5 0 9 -4 9 -8z m40 -2 c0 -5 -4 -10
-9 -10 -6 0 -13 5 -16 10 -3 6 1 10 9 10 9 0 16 -4 16 -10z m-300 -40 c-29 -8
-48 -1 -30 10 7 4 22 5 34 2 20 -6 20 -6 -4 -12z m95 2 c-3 -3 -11 0 -18 7 -9
10 -8 11 6 5 10 -3 15 -9 12 -12z m75 6 c0 -12 -16 -17 -38 -11 -12 3 -20 8
-18 12 5 8 56 8 56 -1z m70 -8 c0 -5 -2 -10 -4 -10 -3 0 -8 5 -11 10 -3 6 -1
10 4 10 6 0 11 -4 11 -10z m-307 -18 c3 7 6 9 6 3 0 -5 -8 -21 -18 -34 -14
-18 -20 -21 -26 -11 -5 9 -4 11 4 6 9 -6 10 0 5 21 -6 25 -5 26 8 15 13 -10
17 -10 21 0z m82 -12 c3 -5 -1 -10 -9 -10 -9 0 -16 5 -16 10 0 6 4 10 9 10 6
0 13 -4 16 -10z m73 -2 c9 -9 12 -9 12 2 0 11 3 11 12 2 15 -15 31 -16 22 0
-4 7 -3 8 5 4 20 -13 3 -24 -31 -21 -18 2 -35 4 -38 5 -3 1 -14 2 -25 1 l-20
-1 20 9 c27 13 29 13 43 -1z m129 -11 c4 -6 0 -8 -10 -4 -9 3 -19 2 -22 -4 -7
-10 -25 -3 -25 10 0 12 49 10 57 -2z m-663 -25 c3 -5 -1 -9 -9 -9 -8 0 -12 4
-9 9 3 4 7 8 9 8 2 0 6 -4 9 -8z m596 -17 c0 -8 -4 -15 -10 -15 -5 0 -7 7 -4
15 4 8 8 15 10 15 2 0 4 -7 4 -15z m40 1 c0 -3 -4 -8 -10 -11 -5 -3 -10 -1
-10 4 0 6 5 11 10 11 6 0 10 -2 10 -4z m90 0 c0 -3 -4 -8 -10 -11 -5 -3 -10
-1 -10 4 0 6 5 11 10 11 6 0 10 -2 10 -4z m-430 -60 c0 -2 -7 -7 -16 -10 -8
-3 -12 -2 -9 4 6 10 25 14 25 6z m-40 -32 c-3 -5 -33 -10 -67 -10 -35 -1 -60
2 -57 7 2 5 27 7 55 4 27 -2 47 0 44 5 -3 4 3 7 12 6 10 -2 16 -7 13 -12z
m380 12 c0 -2 -8 -10 -17 -17 -16 -13 -17 -12 -4 4 13 16 21 21 21 13z m-640
-16 c8 -5 11 -10 5 -10 -5 0 -17 5 -25 10 -8 5 -10 10 -5 10 6 0 17 -5 25 -10z
m98 -7 c-16 -2 -40 -2 -55 0 -16 2 -3 4 27 4 30 0 43 -2 28 -4z m598 -500 c17
-20 20 -31 13 -45 -5 -10 -6 -18 -2 -17 20 3 23 -2 13 -22 -10 -19 -10 -20 9
-10 32 18 36 13 10 -15 -23 -25 -23 -26 -2 -15 27 14 44 14 20 0 -9 -6 -15
-14 -12 -18 2 -5 -5 -17 -17 -27 -12 -11 -18 -13 -14 -6 6 10 2 13 -15 10 -18
-2 -24 2 -23 15 1 9 -1 17 -5 17 -4 0 -15 32 -26 71 -15 60 -16 72 -4 80 22
14 30 11 55 -18z m-382 -29 c-10 -15 -20 -22 -22 -16 -4 13 32 64 36 52 2 -5
-5 -21 -14 -36z m166 37 c0 -5 -7 -11 -15 -15 -9 -3 -15 0 -15 9 0 8 7 15 15
15 8 0 15 -4 15 -9z m-325 -21 c11 -5 14 -9 8 -9 -16 -1 -17 -31 -2 -31 6 0 8
-7 5 -16 -5 -12 -2 -15 11 -10 15 6 15 4 -2 -14 -23 -25 -51 -26 -65 -1 -5 11
-17 27 -26 35 -18 18 -11 34 20 46 26 11 26 11 51 0z m359 -15 c8 11 16 15 16
9 0 -6 -3 -14 -7 -18 -5 -4 -8 -21 -8 -37 0 -16 3 -29 8 -29 4 0 7 -5 7 -11 0
-7 -9 -9 -22 -6 -23 6 -23 6 -3 -9 17 -12 18 -16 5 -24 -9 -6 -17 -5 -22 3
-14 22 -30 107 -24 124 6 14 8 14 21 -3 13 -19 14 -19 29 1z m-167 -37 c4 -53
-27 -76 -48 -36 -10 19 -8 25 15 45 15 13 28 23 29 23 1 0 3 -14 4 -32z m167
-126 c-18 -13 -18 -14 6 -7 28 8 29 8 50 5 8 -1 -3 -10 -25 -20 -48 -22 -69
-25 -58 -7 4 6 8 14 9 17 4 22 18 39 27 33 6 -4 3 -12 -9 -21z m96 -33 c13 -9
13 -10 -1 -6 -9 3 -35 -3 -59 -14 -54 -25 -65 -17 -13 10 44 23 53 25 73 10z
m-1144 -164 c1 -14 -2 -25 -7 -25 -10 0 -12 33 -2 43 3 4 7 7 7 7 1 0 2 -11 2
-25z m44 3 c0 -4 -4 -8 -9 -8 -6 0 -12 4 -15 8 -3 5 1 9 9 9 8 0 15 -4 15 -9z
m0 -398 c12 -8 9 -10 -12 -10 -15 0 -30 5 -33 10 -8 13 25 13 45 0z m-35 -47
c-2 -10 -4 -20 -4 -23 -1 -3 -5 2 -10 10 -10 15 -6 30 9 30 4 0 7 -8 5 -17z
m35 -55 c0 -7 -13 -13 -30 -14 -29 -1 -37 6 -23 19 11 12 53 7 53 -5z m0 -43
c10 -12 10 -15 -4 -15 -9 0 -16 7 -16 15 0 8 2 15 4 15 2 0 9 -7 16 -15z m-60
-33 c0 -15 -2 -15 -10 -2 -13 20 -13 33 0 25 6 -3 10 -14 10 -23z"/>
<path d="M3510 2069 c0 -5 5 -7 10 -4 6 3 10 8 10 11 0 2 -4 4 -10 4 -5 0 -10
-5 -10 -11z"/>
<path d="M2510 1720 c-9 -6 -10 -10 -3 -10 6 0 15 5 18 10 8 12 4 12 -15 0z"/>
<path d="M2205 2694 c-9 -15 -12 -23 -6 -20 11 7 35 46 28 46 -3 0 -12 -12
-22 -26z"/>
<path d="M2560 2712 c0 -7 -9 -12 -19 -12 -11 0 -22 -4 -26 -9 -7 -13 35 -5
49 9 5 5 7 13 3 17 -4 3 -7 1 -7 -5z"/>
<path d="M2424 2688 l-19 -23 23 19 c21 18 27 26 19 26 -2 0 -12 -10 -23 -22z"/>
<path d="M3498 2693 c7 -3 16 -2 19 1 4 3 -2 6 -13 5 -11 0 -14 -3 -6 -6z"/>
<path d="M4020 2690 c0 -5 5 -10 10 -10 6 0 10 5 10 10 0 6 -4 10 -10 10 -5 0
-10 -4 -10 -10z"/>
<path d="M3417 2669 c7 -7 15 -10 18 -7 3 3 -2 9 -12 12 -14 6 -15 5 -6 -5z"/>
<path d="M2526 2652 c-2 -4 4 -8 15 -8 10 0 19 4 19 8 0 4 -6 8 -14 8 -8 0
-17 -4 -20 -8z"/>
<path d="M3255 2649 c-11 -17 1 -21 15 -4 8 9 8 15 2 15 -6 0 -14 -5 -17 -11z"/>
<path d="M3284 2628 l-19 -23 25 20 c14 11 27 21 29 22 2 2 0 3 -6 3 -5 0 -18
-10 -29 -22z"/>
<path d="M3594 2638 c10 -6 22 -6 26 -2 5 5 -3 10 -18 11 -22 1 -24 0 -8 -9z"/>
<path d="M3367 2633 c-4 -3 -7 -11 -7 -17 0 -6 5 -5 12 2 6 6 9 14 7 17 -3 3
-9 2 -12 -2z"/>
<path d="M745 2600 c-3 -6 1 -7 9 -4 18 7 21 14 7 14 -6 0 -13 -4 -16 -10z"/>
<path d="M3250 2600 c0 -5 5 -10 11 -10 5 0 7 5 4 10 -3 6 -8 10 -11 10 -2 0
-4 -4 -4 -10z"/>
<path d="M3395 2600 c-3 -6 1 -7 9 -4 18 7 21 14 7 14 -6 0 -13 -4 -16 -10z"/>
<path d="M708 2593 c7 -3 16 -2 19 1 4 3 -2 6 -13 5 -11 0 -14 -3 -6 -6z"/>
<path d="M2517 2584 c3 -8 -1 -14 -8 -14 -11 0 -11 -3 1 -10 13 -9 13 -12 -3
-24 -10 -8 -14 -17 -8 -20 10 -6 10 -24 -1 -41 -10 -17 4 -30 34 -32 19 0 25
3 21 13 -3 8 -8 12 -12 10 -4 -3 -13 -1 -21 4 -12 7 -11 10 3 16 10 4 23 2 30
-5 6 -6 15 -11 19 -11 4 0 -2 10 -14 22 -13 13 -29 22 -35 20 -7 -2 -13 2 -13
8 0 5 10 10 23 10 25 1 64 26 54 37 -4 3 -7 2 -7 -2 0 -5 -6 -1 -12 8 -17 22
-59 32 -51 11z m48 -24 c4 -6 -2 -9 -14 -7 -29 4 -39 17 -13 17 11 0 24 -5 27
-10z"/>
<path d="M2845 2589 c-4 -6 -5 -12 -2 -15 2 -3 7 2 10 11 7 17 1 20 -8 4z"/>
<path d="M3430 2560 c0 -5 5 -10 10 -10 6 0 10 5 10 10 0 6 -4 10 -10 10 -5 0
-10 -4 -10 -10z"/>
<path d="M3325 2550 c-3 -5 -2 -10 4 -10 5 0 13 5 16 10 3 6 2 10 -4 10 -5 0
-13 -4 -16 -10z"/>
<path d="M3715 2550 c3 -5 8 -10 11 -10 2 0 4 5 4 10 0 6 -5 10 -11 10 -5 0
-7 -4 -4 -10z"/>
<path d="M3797 2540 c3 -11 9 -20 15 -20 5 0 4 9 -2 20 -6 11 -12 20 -14 20
-2 0 -2 -9 1 -20z"/>
<path d="M585 2540 c-13 -5 4 -8 47 -8 38 -1 72 -4 78 -7 5 -3 10 1 10 9 0 12
-13 15 -57 14 -32 0 -67 -4 -78 -8z"/>
<path d="M2460 2539 c0 -5 5 -7 10 -4 6 3 10 8 10 11 0 2 -4 4 -10 4 -5 0 -10
-5 -10 -11z"/>
<path d="M460 2514 c0 -8 5 -12 10 -9 6 4 8 11 5 16 -9 14 -15 11 -15 -7z"/>
<path d="M3305 2521 c-6 -11 13 -26 22 -17 4 3 1 6 -6 6 -7 0 -9 5 -6 10 3 6
4 10 1 10 -3 0 -7 -4 -11 -9z"/>
<path d="M420 2499 c0 -5 5 -7 10 -4 6 3 10 8 10 11 0 2 -4 4 -10 4 -5 0 -10
-5 -10 -11z"/>
<path d="M2450 2500 c-9 -6 -10 -10 -3 -10 6 0 15 5 18 10 8 12 4 12 -15 0z"/>
<path d="M3146 2497 c3 -10 9 -15 12 -12 3 3 0 11 -7 18 -10 9 -11 8 -5 -6z"/>
<path d="M3076 2475 c-3 -8 -1 -15 4 -15 13 0 22 18 11 24 -5 3 -11 -1 -15 -9z"/>
<path d="M2405 2471 c-3 -5 -2 -12 3 -15 5 -3 9 1 9 9 0 17 -3 19 -12 6z"/>
<path d="M2458 2469 c-10 -5 -18 -14 -18 -19 0 -14 28 -1 34 16 6 16 6 16 -16
3z"/>
<path d="M3226 2465 c-15 -12 -15 -13 0 -19 16 -6 44 9 44 24 0 11 -26 8 -44
-5z"/>
<path d="M3030 2460 c-8 -5 -12 -12 -9 -15 4 -3 12 1 19 10 14 17 11 19 -10 5z"/>
<path d="M3105 2461 c-3 -5 -2 -12 3 -15 5 -3 9 1 9 9 0 17 -3 19 -12 6z"/>
<path d="M2483 2435 c0 -8 4 -12 8 -9 4 2 10 0 13 -5 3 -5 -1 -12 -10 -15 -8
-3 -12 -11 -9 -17 5 -7 13 -5 25 6 14 13 19 13 23 3 4 -10 8 -10 16 2 8 12 5
17 -17 24 -15 5 -32 13 -38 17 -7 5 -11 3 -11 -6z"/>
<path d="M2839 2423 c-13 -16 -12 -17 4 -4 9 7 17 15 17 17 0 8 -8 3 -21 -13z"/>
<path d="M2445 2419 c-4 -6 -5 -13 -2 -16 7 -7 27 6 27 18 0 12 -17 12 -25 -2z"/>
<path d="M2406 2404 c-9 -8 -16 -20 -16 -26 0 -6 1 -9 3 -7 1 2 11 14 21 27
22 25 16 30 -8 6z"/>
<path d="M647 2396 c-6 -14 0 -26 14 -26 8 0 6 26 -3 35 -3 3 -8 -1 -11 -9z"/>
<path d="M2442 2378 c-17 -17 -15 -27 6 -21 10 2 19 11 19 19 0 17 -9 18 -25
2z"/>
<path d="M710 2349 c0 -5 5 -7 10 -4 6 3 10 8 10 11 0 2 -4 4 -10 4 -5 0 -10
-5 -10 -11z"/>
<path d="M648 2343 c7 -3 16 -2 19 1 4 3 -2 6 -13 5 -11 0 -14 -3 -6 -6z"/>
<path d="M2366 2331 c-3 -4 6 -6 19 -3 14 2 25 6 25 8 0 8 -39 4 -44 -5z"/>
<path d="M2432 2333 c-6 -2 -10 -9 -7 -13 7 -11 35 -2 35 11 0 10 -8 10 -28 2z"/>
<path d="M2830 2325 c0 -8 2 -15 4 -15 2 0 6 7 10 15 3 8 1 15 -4 15 -6 0 -10
-7 -10 -15z"/>
<path d="M3190 2321 c0 -6 4 -13 10 -16 6 -3 7 1 4 9 -7 18 -14 21 -14 7z"/>
<path d="M3252 2318 c5 -15 28 -23 28 -10 0 5 -7 13 -16 16 -10 4 -14 1 -12
-6z"/>
<path d="M2386 2301 c-15 -16 -15 -19 -2 -24 9 -4 15 -3 15 1 -3 21 2 32 13
26 7 -4 8 -3 4 4 -9 15 -10 15 -30 -7z"/>
<path d="M805 2290 c3 -5 8 -10 11 -10 2 0 4 5 4 10 0 6 -5 10 -11 10 -5 0 -7
-4 -4 -10z"/>
<path d="M2380 2250 c-8 -5 -11 -12 -7 -16 4 -4 13 -2 19 4 15 15 7 24 -12 12z"/>
<path d="M618 2243 c7 -3 16 -2 19 1 4 3 -2 6 -13 5 -11 0 -14 -3 -6 -6z"/>
<path d="M3375 2184 c-31 -47 -68 -84 -78 -77 -6 3 -7 2 -4 -4 4 -6 -7 -23
-23 -39 -33 -33 -37 -44 -15 -44 8 0 15 7 15 15 0 8 6 15 14 15 8 0 18 9 21
20 3 11 13 20 21 20 8 0 14 4 14 10 0 5 14 30 32 55 17 24 29 47 26 50 -3 3
-13 -6 -23 -21z"/>
<path d="M2438 2193 c7 -3 16 -2 19 1 4 3 -2 6 -13 5 -11 0 -14 -3 -6 -6z"/>
<path d="M3145 2179 c-4 -6 -5 -12 -2 -15 2 -3 7 2 10 11 7 17 1 20 -8 4z"/>
<path d="M3190 2175 c-7 -9 -8 -15 -2 -15 5 0 12 7 16 15 3 8 4 15 2 15 -2 0
-9 -7 -16 -15z"/>
<path d="M3296 2159 c-23 -27 -15 -35 9 -9 10 11 16 22 14 25 -3 2 -13 -5 -23
-16z"/>
<path d="M3227 2149 c-10 -11 -16 -24 -13 -27 6 -6 35 27 36 41 0 11 -4 9 -23
-14z"/>
<path d="M3085 2140 c-3 -5 3 -10 15 -10 12 0 18 5 15 10 -3 6 -10 10 -15 10
-5 0 -12 -4 -15 -10z"/>
<path d="M3552 2134 c-7 -8 -8 -14 -3 -14 10 0 25 19 20 25 -2 1 -10 -3 -17
-11z"/>
<path d="M3073 2105 c0 -8 4 -12 9 -9 5 3 6 10 3 15 -9 13 -12 11 -12 -6z"/>
<path d="M2020 2093 c0 -5 9 -16 20 -26 11 -9 20 -12 20 -6 0 5 5 7 11 4 17
-11 227 -7 247 4 9 6 13 11 7 11 -109 4 -220 11 -257 16 -27 3 -48 2 -48 -3z"/>
<path d="M3070 2050 c6 -11 15 -20 21 -20 6 0 6 7 -1 20 -6 11 -15 20 -21 20
-6 0 -6 -7 1 -20z"/>
<path d="M3135 2060 c6 -10 4 -12 -11 -6 -15 6 -17 5 -6 -5 9 -9 15 -10 23 -2
8 8 7 13 -2 18 -8 6 -10 4 -4 -5z"/>
<path d="M3228 2063 c7 -3 16 -2 19 1 4 3 -2 6 -13 5 -11 0 -14 -3 -6 -6z"/>
<path d="M3197 2049 c7 -7 15 -10 18 -7 3 3 -2 9 -12 12 -14 6 -15 5 -6 -5z"/>
<path d="M2148 2013 c7 -3 16 -2 19 1 4 3 -2 6 -13 5 -11 0 -14 -3 -6 -6z"/>
<path d="M2390 2010 c0 -4 -23 -11 -51 -15 -38 -5 -54 -4 -59 6 -6 9 -12 10
-22 2 -7 -5 -40 -9 -73 -7 -148 6 -168 5 -155 -11 5 -7 7 -14 4 -17 -8 -8 75
-23 110 -20 16 1 33 -3 38 -10 4 -8 8 -8 8 -2 0 6 24 11 58 12 75 3 192 32
192 49 0 7 -3 13 -7 14 -5 0 -16 2 -25 4 -10 2 -18 0 -18 -5z"/>
<path d="M2810 2002 c-8 -9 -13 -16 -11 -15 2 1 10 -4 18 -12 8 -8 26 -14 41
-14 20 1 22 2 7 6 -44 9 -46 12 -35 33 13 24 1 25 -20 2z"/>
<path d="M2916 2005 c-3 -8 -1 -15 4 -15 6 0 10 7 10 15 0 8 -2 15 -4 15 -2 0
-6 -7 -10 -15z"/>
<path d="M2563 1995 c0 -8 4 -12 9 -9 5 3 6 10 3 15 -9 13 -12 11 -12 -6z"/>
<path d="M18 1991 c8 -4 11 -19 8 -34 -3 -18 1 -30 12 -37 9 -5 14 -10 10 -11
-24 -5 -34 -4 -40 6 -5 6 -8 3 -8 -7 0 -17 12 -31 54 -66 9 -7 16 -8 16 -3 0
5 -8 16 -18 23 -10 7 -22 20 -27 28 -8 13 -7 13 8 1 18 -14 19 -14 21 39 1 34
-19 70 -39 70 -5 0 -4 -4 3 -9z m27 -40 c3 -5 2 -12 -3 -15 -5 -3 -9 1 -9 9 0
17 3 19 12 6z"/>
<path d="M710 1981 c0 -5 5 -13 10 -16 6 -3 10 -2 10 4 0 5 -4 13 -10 16 -5 3
-10 2 -10 -4z"/>
<path d="M2535 1981 c-3 -5 -2 -12 3 -15 5 -3 9 1 9 9 0 17 -3 19 -12 6z"/>
<path d="M2422 1954 c-7 -8 -8 -14 -3 -14 10 0 25 19 20 25 -2 1 -10 -3 -17
-11z"/>
<path d="M635 1930 c3 -6 -2 -10 -12 -11 -10 0 -13 -3 -6 -5 7 -3 20 -1 29 4
15 8 15 9 0 15 -10 4 -15 3 -11 -3z"/>
<path d="M2828 1929 c-10 -5 -18 -14 -18 -19 0 -14 28 -1 34 16 6 16 6 16 -16
3z"/>
<path d="M80 1915 c5 -7 6 -16 2 -20 -4 -5 -1 -5 6 -1 17 10 15 33 -3 33 -10
0 -12 -4 -5 -12z"/>
<path d="M2455 1920 c4 -7 -3 -9 -19 -6 -14 3 -25 2 -25 -2 4 -26 -2 -35 -13
-24 -7 7 -30 12 -52 11 -32 0 -37 -2 -21 -9 19 -8 19 -9 -2 -9 -13 -1 -23 5
-23 13 0 9 -10 13 -32 10 -18 -1 -42 -4 -53 -5 -14 -1 -11 -4 10 -8 17 -4 38
-4 48 1 12 6 17 5 17 -4 0 -10 -28 -12 -126 -10 l-126 4 7 -24 c4 -13 11 -27
16 -32 8 -9 119 -15 119 -6 0 10 135 5 142 -5 5 -6 8 -3 8 6 0 12 12 16 49 18
53 2 71 -10 49 -36 -11 -14 -10 -15 9 -9 12 4 24 3 27 -3 7 -10 43 -3 52 10 3
5 -9 6 -26 3 -24 -5 -30 -3 -30 10 0 10 5 14 10 11 6 -3 10 -1 10 4 0 6 -6 11
-14 11 -8 0 -18 5 -22 11 -4 8 1 9 17 4 l24 -8 -20 23 c-19 21 -19 22 -2 35
16 11 16 13 2 19 -10 3 -13 2 -10 -4z m-72 -37 c-7 -2 -19 -2 -25 0 -7 3 -2 5
12 5 14 0 19 -2 13 -5z"/>
<path d="M2111 1901 c-10 -7 -7 -9 12 -8 15 1 27 5 27 10 0 10 -22 9 -39 -2z"/>
<path d="M2160 1906 c0 -2 7 -7 16 -10 8 -3 12 -2 9 4 -6 10 -25 14 -25 6z"/>
<path d="M89 1868 c-5 -18 -6 -38 -1 -34 7 8 12 36 6 36 -2 0 -4 -1 -5 -2z"/>
<path d="M2500 1850 c13 -23 20 -26 20 -6 0 8 -7 16 -15 20 -13 4 -14 2 -5
-14z"/>
<path d="M494 1845 c-10 -8 -14 -14 -9 -14 6 0 19 6 29 14 11 8 15 15 10 15
-6 0 -19 -7 -30 -15z"/>
<path d="M697 1836 c-16 -20 -17 -20 -10 -1 6 19 5 19 -16 -2 -11 -12 -21 -26
-21 -31 0 -5 -12 -9 -26 -9 -15 0 -30 -7 -35 -14 -7 -12 -9 -11 -9 1 -1 11 -4
10 -15 -4 -8 -11 -15 -16 -16 -10 0 5 -4 -1 -10 -14 -5 -14 -13 -20 -20 -16
-8 4 -9 3 -5 -4 4 -7 2 -12 -3 -12 -6 0 -11 -5 -11 -10 0 -6 -18 -33 -40 -61
-22 -28 -40 -57 -40 -65 0 -8 -4 -14 -10 -14 -5 0 -10 -6 -10 -14 0 -8 -6 -21
-14 -28 -7 -8 -17 -24 -20 -36 -5 -13 -12 -20 -19 -15 -7 3 -4 -3 6 -14 9 -11
14 -24 10 -28 -5 -5 1 -3 11 5 18 14 19 13 13 -3 -6 -15 -4 -16 13 -7 24 13
25 2 3 -30 l-17 -25 23 20 c18 16 24 17 31 5 5 -8 6 -18 4 -22 -3 -4 2 -5 10
-2 9 3 16 10 16 16 0 5 -4 7 -9 4 -5 -3 -11 3 -14 13 -3 11 1 22 9 25 9 3 11
-1 8 -12 -5 -14 -3 -14 10 2 9 11 19 36 22 55 4 20 13 48 20 63 8 15 14 39 14
54 0 27 39 71 153 173 28 25 36 38 31 53 -4 13 -2 18 4 14 5 -3 12 0 15 7 8
21 -17 16 -36 -7z"/>
<path d="M1625 1850 c-3 -5 -15 -10 -26 -10 -10 0 -27 -8 -37 -17 -9 -10 -26
-18 -37 -17 -11 0 -27 -3 -35 -6 -17 -8 -42 -2 -36 9 3 4 -8 7 -24 6 -15 0
-26 -3 -23 -7 2 -5 0 -8 -6 -8 -5 0 -11 4 -13 9 -1 5 -18 6 -35 4 -18 -3 -30
-9 -27 -14 3 -5 -2 -9 -11 -9 -30 0 -158 -77 -205 -124 -11 -11 -20 -16 -20
-11 0 5 -7 0 -15 -11 -12 -15 -16 -16 -24 -5 -7 11 -10 11 -17 -1 -5 -8 -21
-23 -35 -32 -15 -9 -32 -30 -39 -46 -7 -17 -16 -30 -21 -30 -5 0 -17 -17 -28
-37 -10 -21 -31 -49 -45 -62 -14 -14 -26 -31 -26 -38 0 -8 -4 -11 -10 -8 -6 4
-7 -1 -3 -11 5 -13 3 -16 -10 -11 -12 4 -15 1 -12 -14 3 -16 0 -19 -12 -15
-13 5 -14 4 -3 -8 10 -13 8 -22 -8 -48 -11 -18 -18 -38 -15 -45 2 -6 -1 -14
-6 -18 -6 -3 -11 -17 -11 -31 0 -14 -4 -23 -9 -19 -5 3 -12 -4 -16 -15 -3 -11
-13 -20 -22 -20 -12 0 -14 6 -8 28 4 15 9 44 11 64 7 53 52 187 77 227 11 19
34 50 51 68 21 25 26 37 18 45 -8 8 -15 8 -26 -1 -11 -9 -15 -9 -19 1 -5 15
-53 -35 -63 -65 -3 -9 -10 -15 -15 -12 -5 4 -9 1 -9 -5 0 -6 -5 -8 -11 -4 -8
5 -10 -1 -7 -20 3 -16 1 -29 -6 -32 -7 -3 -12 -13 -13 -23 -1 -11 -9 -28 -19
-39 -21 -25 -64 -128 -64 -153 0 -10 -8 -23 -19 -28 -22 -12 -25 -60 -4 -68
12 -5 12 -7 2 -14 -7 -4 -19 -3 -25 2 -18 15 -12 -23 6 -39 13 -12 13 -13 0
-6 -13 7 -13 5 -1 -9 9 -11 10 -17 2 -17 -6 0 -11 -5 -11 -11 0 -5 5 -7 11 -3
8 4 9 0 4 -15 -4 -13 -2 -21 5 -21 6 0 8 5 5 10 -4 6 -3 9 2 8 4 -1 19 3 33
10 23 12 24 12 6 -2 -11 -9 -14 -16 -8 -16 7 0 12 -7 12 -16 0 -13 -7 -15 -31
-10 -26 5 -36 1 -60 -25 -16 -17 -29 -26 -29 -21 0 6 7 17 15 26 8 8 15 19 15
24 0 6 6 13 13 15 9 4 9 6 -1 6 -14 1 -72 -55 -72 -69 0 -4 -14 -23 -31 -41
-32 -36 -31 -29 8 33 15 24 18 35 9 32 -8 -3 -27 -31 -43 -62 -15 -31 -34 -62
-41 -70 -6 -7 -12 -18 -12 -23 0 -6 -4 -7 -10 -4 -10 6 13 66 40 100 15 20 15
20 -7 2 -11 -10 -24 -29 -27 -42 -7 -26 -36 -41 -47 -24 -4 8 -11 4 -19 -12
-7 -13 -16 -26 -20 -29 -9 -7 -63 -90 -79 -122 -8 -15 -17 -25 -22 -23 -4 3
-5 -3 -2 -14 3 -10 0 -22 -6 -25 -6 -4 -11 -1 -12 6 0 7 -9 -11 -21 -41 -11
-29 -23 -49 -27 -43 -3 6 -11 0 -18 -14 -6 -13 -7 -24 -2 -24 5 0 9 6 10 13 0
6 3 4 7 -5 4 -9 5 -40 3 -68 -2 -43 -6 -50 -20 -45 -13 5 -14 4 -3 -6 6 -7 12
-27 12 -44 0 -22 5 -32 15 -32 9 0 14 5 12 11 -2 6 0 20 5 31 8 18 8 18 4 -2
-5 -27 11 -42 20 -19 3 9 14 16 23 16 14 0 14 2 1 10 -12 8 -12 10 5 10 11 0
39 18 62 39 33 32 38 41 25 44 -15 4 -15 5 1 6 9 0 17 6 17 13 0 6 3 8 6 5 8
-7 44 36 44 52 0 6 16 27 36 46 20 19 32 35 28 35 -4 0 0 6 10 13 9 7 18 22
19 34 0 12 4 21 7 20 10 -3 49 37 44 45 -3 4 0 8 7 8 7 0 9 3 6 6 -4 4 13 25
37 48 24 22 53 55 65 73 30 44 80 93 95 93 7 0 21 -9 32 -21 15 -16 16 -22 5
-28 -8 -5 -10 -14 -6 -20 11 -20 -4 -61 -23 -61 -14 0 -15 -2 -3 -9 13 -8 11
-17 -9 -55 -13 -25 -26 -46 -29 -46 -3 0 -15 -29 -26 -65 -15 -49 -24 -65 -38
-65 -10 0 -16 -4 -12 -10 3 -5 13 -7 23 -4 10 4 13 2 7 -3 -5 -4 -12 -19 -13
-33 -2 -14 -8 -29 -13 -34 -5 -6 -7 4 -4 23 4 35 -7 35 -12 0 -2 -11 -9 -30
-15 -42 -7 -12 -13 -24 -13 -27 -1 -3 -5 -16 -9 -29 -6 -19 -4 -28 10 -39 13
-10 15 -16 7 -19 -7 -3 -13 -12 -13 -21 -1 -18 -23 -52 -33 -52 -4 0 -4 7 -1
15 4 8 1 15 -6 15 -6 0 -10 -10 -8 -22 2 -13 9 -22 16 -20 6 1 12 -2 12 -8 0
-5 -6 -11 -12 -12 -7 0 -17 -2 -23 -2 -17 -2 -17 -20 0 -26 14 -5 13 -8 -6
-25 -12 -11 -19 -14 -14 -6 5 9 3 12 -5 9 -7 -2 -14 -12 -16 -22 -2 -12 2 -16
12 -12 8 3 14 1 14 -4 0 -6 -4 -10 -10 -10 -21 0 -25 -2 -43 -17 -10 -10 -15
-24 -11 -35 3 -12 0 -18 -9 -18 -8 0 -17 -7 -21 -15 -4 -13 -2 -14 14 -5 11 6
20 7 20 1 0 -5 -11 -12 -25 -15 -14 -4 -25 -13 -25 -21 0 -13 45 -15 335 -15
l335 1 4 22 c5 24 21 115 36 205 15 91 8 104 -37 69 -9 -6 -19 -5 -30 4 -10 8
-14 9 -10 2 4 -6 1 -15 -7 -20 -16 -9 -16 -10 -16 -48 0 -14 -4 -25 -9 -25 -5
0 -7 14 -5 30 3 18 1 30 -6 30 -6 0 -9 -3 -7 -8 3 -4 -1 -13 -9 -20 -8 -7 -14
-9 -14 -5 0 4 -7 -3 -16 -15 -16 -23 -11 -47 8 -36 7 4 6 9 -2 14 -7 4 -8 10
-4 13 5 3 15 -1 22 -9 9 -10 9 -14 1 -14 -9 0 -9 -3 0 -14 8 -10 9 -16 1 -21
-5 -3 -10 -1 -10 6 0 7 -10 9 -25 7 -13 -3 -22 -1 -19 3 3 5 -5 7 -18 6 -13
-2 -23 -8 -23 -13 0 -5 -4 -14 -8 -20 -4 -7 0 -15 10 -18 15 -6 15 -8 3 -16
-8 -5 -23 -7 -32 -4 -9 2 -18 -1 -21 -8 -2 -7 -3 -5 -2 4 2 9 -4 19 -12 22
-20 8 -23 8 -23 -5 0 -5 4 -8 8 -5 5 3 9 -1 9 -9 0 -20 -13 -19 -21 2 -4 11
-1 22 8 29 23 16 20 27 -4 14 -18 -10 -20 -7 -21 22 -1 18 -1 37 0 42 1 5 -5
4 -13 -3 -13 -11 -16 -8 -21 16 -4 15 -8 34 -11 41 -2 6 2 12 9 12 7 0 4 5 -6
11 -13 8 -17 22 -16 59 2 33 6 47 13 43 6 -4 5 1 -2 10 -15 18 -14 91 1 121 6
12 5 21 -1 25 -14 8 37 154 73 211 31 50 66 67 77 38 5 -11 4 -27 -1 -36 -6
-12 -4 -24 5 -37 8 -10 14 -17 15 -14 0 2 2 12 4 22 2 13 -1 17 -11 13 -22 -9
-16 0 14 19 15 10 22 12 15 5 -8 -9 -9 -19 -3 -31 11 -19 10 -20 -38 -45 l-27
-14 32 0 c22 0 33 6 38 19 3 11 13 25 22 33 15 11 16 11 10 -5 -4 -11 -3 -16
3 -12 6 3 10 13 10 21 0 17 -26 19 -33 2 -4 -8 -6 -7 -6 3 -1 9 7 20 17 23 9
4 37 18 62 31 51 27 42 33 -15 9 -43 -17 -38 -1 6 21 16 9 27 20 25 24 -3 5 6
21 19 35 14 15 25 32 25 37 0 27 165 168 266 229 200 120 244 135 404 134 119
0 128 -1 193 -32 38 -17 66 -26 64 -19 -2 7 -9 11 -15 10 -8 -2 -9 8 -5 30 6
29 5 31 -11 18 -15 -13 -16 -12 -7 13 7 17 7 26 1 26 -6 0 -10 -4 -10 -8 0
-19 -30 -7 -31 12 0 20 -1 20 -11 -1 -12 -25 -28 -31 -28 -10 0 16 -29 19 -47
5 -7 -6 -14 -5 -18 2 -4 6 -13 9 -21 6 -8 -3 -13 0 -11 7 1 7 -10 13 -25 15
-34 4 -78 48 -78 78 0 21 37 74 70 101 35 29 135 53 215 53 66 0 82 3 82 15 0
8 -6 15 -14 15 -7 0 -13 5 -13 10 0 6 -11 10 -24 10 -14 0 -28 5 -31 10 -3 6
-18 10 -33 10 -15 0 -36 7 -46 15 -10 8 -23 12 -28 9 -4 -3 -11 2 -14 10 -3 9
-11 13 -18 9 -6 -3 -6 -1 2 8 15 16 16 33 0 23 -7 -4 -8 -3 -4 5 6 9 11 9 22
0 12 -10 15 -10 12 2 -2 8 -11 17 -20 21 -10 4 -15 13 -12 22 4 11 0 14 -15
11 -12 -2 -21 1 -21 7 0 5 -7 8 -15 4 -8 -3 -15 -1 -15 5 0 6 -6 9 -13 6 -8
-3 -20 -1 -28 5 -11 8 -10 9 4 4 9 -3 17 -3 17 1 0 7 -32 32 -42 33 -4 0 -10
-4 -13 -10z m-210 -70 c-3 -5 -16 -10 -28 -10 -18 0 -19 2 -7 10 20 13 43 13
35 0z m-116 -86 c-6 -7 -15 -11 -20 -8 -5 3 -9 1 -9 -5 0 -13 -101 -72 -112
-65 -4 3 -5 -2 -2 -10 3 -9 1 -16 -5 -16 -12 0 -14 20 -3 35 10 16 68 55 110
75 40 20 60 17 41 -6z m194 -91 c-4 -10 -9 -11 -16 -4 -18 18 -31 13 -16 -6
11 -13 11 -17 2 -20 -7 -3 -13 -11 -13 -19 0 -8 -4 -14 -10 -14 -5 0 -12 -11
-16 -25 -3 -13 -12 -29 -19 -35 -8 -7 -17 -33 -21 -58 -3 -26 -10 -52 -15 -57
-4 -6 -38 -12 -75 -13 -37 -1 -70 -5 -75 -7 -4 -3 -34 -8 -66 -11 -32 -3 -64
-7 -70 -9 -18 -6 -44 5 -37 16 3 5 17 9 32 9 24 1 25 2 10 13 -15 12 -15 14 0
24 9 5 40 16 69 23 29 8 50 17 47 22 -3 4 4 9 15 9 12 1 26 3 31 4 6 1 27 3
47 4 37 1 39 12 2 18 -29 4 -59 22 -59 34 0 6 7 9 14 6 10 -4 13 -1 10 7 -5
14 61 31 101 27 16 -2 18 0 8 10 -18 19 -16 39 5 39 9 1 33 9 52 19 40 19 72
17 63 -6z m24 5 c-3 -8 -6 -5 -6 6 -1 11 2 17 5 13 3 -3 4 -12 1 -19z m-133
-274 c3 -8 2 -12 -4 -9 -6 3 -10 2 -10 -4 0 -5 6 -11 12 -13 10 -4 10 -10 0
-29 -11 -23 -12 -23 -6 -1 l5 22 -25 -23 c-14 -14 -26 -28 -26 -33 0 -5 5 -2
10 6 8 13 10 13 10 -1 0 -11 -12 -19 -37 -25 -21 -4 -41 -7 -45 -6 -5 1 -8 -3
-8 -9 0 -5 -5 -7 -10 -4 -8 5 -7 12 2 22 11 14 11 15 -7 5 -11 -6 -37 -14 -57
-17 -43 -7 -58 -21 -22 -21 13 0 24 3 24 7 0 6 9 6 40 -1 3 0 -2 -5 -10 -9
-14 -9 -39 -13 -145 -26 l-40 -5 38 14 c21 8 42 17 45 21 9 9 -71 0 -87 -9 -7
-5 -11 2 -11 21 1 27 1 27 15 9 8 -11 15 -14 15 -7 0 7 4 10 8 7 5 -3 16 4 25
15 10 11 22 17 27 14 6 -3 10 -1 10 6 0 7 3 9 7 6 3 -4 12 1 19 11 11 14 13
14 14 2 0 -12 2 -12 9 -2 4 7 14 14 22 15 8 2 20 6 26 10 7 4 30 10 50 12 21
2 39 4 41 4 1 1 5 2 10 2 4 1 18 10 31 20 29 23 27 23 35 3z m-325 -96 c-8
-14 -14 -18 -17 -10 -2 6 -11 12 -20 12 -15 0 -15 2 -2 10 8 5 23 10 33 10 15
0 16 -3 6 -22z m-67 -20 c-7 -7 -12 -8 -12 -2 0 14 12 26 19 19 2 -3 -1 -11
-7 -17z m-369 -133 c20 -19 12 -47 -17 -61 -20 -9 -22 -8 -18 18 5 31 18 37
25 11 4 -15 5 -14 6 3 0 11 -4 25 -11 32 -7 7 -9 12 -6 12 4 0 13 -7 21 -15z
m37 -119 c0 -2 -7 -6 -15 -10 -8 -3 -15 -1 -15 4 0 6 7 10 15 10 8 0 15 -2 15
-4z m-350 -184 c0 -20 -36 -59 -45 -50 -7 7 27 68 38 68 4 0 7 -8 7 -18z m-58
-84 c-7 -7 -12 -8 -12 -2 0 14 12 26 19 19 2 -3 -1 -11 -7 -17z m328 -242 c0
-3 -4 -8 -10 -11 -5 -3 -10 -1 -10 4 0 6 5 11 10 11 6 0 10 -2 10 -4z m-20
-52 c0 -8 -4 -12 -10 -9 -5 3 -10 10 -10 16 0 5 5 9 10 9 6 0 10 -7 10 -16z
m-360 -34 c0 -5 -5 -10 -11 -10 -5 0 -7 5 -4 10 3 6 8 10 11 10 2 0 4 -4 4
-10z m785 -129 c3 -5 1 -12 -5 -16 -5 -3 -10 1 -10 9 0 18 6 21 15 7z m-278
-88 c-3 -10 -5 -4 -5 12 0 17 2 24 5 18 2 -7 2 -21 0 -30z m144 0 c13 -16 12
-17 -3 -4 -10 7 -18 15 -18 17 0 8 8 3 21 -13z m-426 -50 c-9 -8 -18 -13 -21
-10 -8 8 19 36 29 30 4 -2 0 -11 -8 -20z m388 -20 c3 -5 -1 -14 -8 -20 -11
-10 -13 -9 -12 7 1 20 12 26 20 13z m28 -48 c5 4 6 -1 3 -9 -3 -9 -10 -16 -16
-16 -5 0 -6 5 -3 10 3 6 1 10 -5 10 -6 0 -8 5 -4 12 6 9 9 9 12 0 2 -7 8 -10
13 -7z"/>
<path d="M1138 1363 c7 -3 16 -2 19 1 4 3 -2 6 -13 5 -11 0 -14 -3 -6 -6z"/>
<path d="M1285 1244 c-20 -15 -12 -17 19 -5 11 4 15 10 10 13 -5 4 -18 0 -29
-8z"/>
<path d="M19 1845 c-1 -3 -3 -9 -4 -15 -1 -5 -3 -11 -5 -12 -1 -2 -3 -11 -5
-21 -2 -11 1 -15 8 -10 7 4 6 -1 -2 -10 -10 -13 -10 -17 -1 -17 9 0 10 -3 1
-13 -7 -10 -11 -223 -11 -723 0 -607 2 -705 14 -683 7 15 19 69 25 122 11 95
63 276 82 288 6 3 10 9 9 13 -1 4 14 32 32 64 18 31 44 75 56 97 13 22 32 49
41 60 26 30 56 79 53 88 -1 4 2 7 8 7 17 0 50 39 50 60 0 11 -4 20 -9 20 -5 0
-12 12 -16 27 -5 22 -8 24 -17 12 -8 -11 -9 -11 -4 4 3 10 -5 35 -19 57 -14
22 -22 40 -18 40 5 0 2 4 -5 9 -8 5 -15 20 -15 33 -2 18 -7 24 -19 20 -13 -3
-16 1 -13 16 2 12 -3 23 -11 26 -9 4 -12 11 -7 18 10 17 5 49 -11 68 -7 8 -16
23 -19 33 -4 11 -12 15 -19 11 -7 -4 -10 -4 -6 1 10 10 -17 35 -37 35 -12 0
-16 6 -12 20 3 11 0 20 -6 20 -7 0 -12 13 -12 29 0 16 3 27 8 24 4 -2 7 -1 8
4 0 4 2 16 4 25 2 9 -3 22 -11 28 -10 9 -12 8 -9 -9 2 -11 0 -23 -5 -26 -4 -3
-7 3 -6 12 2 10 -7 25 -18 35 l-21 17 23 -4 c23 -4 32 18 12 30 -8 5 -8 11 0
20 8 10 8 15 -1 21 -7 4 -9 3 -5 -4 3 -5 0 -12 -6 -15 -10 -3 -10 -7 1 -20 11
-15 11 -17 -1 -17 -8 0 -15 7 -16 15 -1 8 -3 22 -4 30 -1 8 -5 12 -10 9 -7 -5
-12 10 -9 29 1 8 -8 10 -10 2z m16 -46 c11 -16 1 -19 -13 -3 -7 8 -8 14 -3 14
5 0 13 -5 16 -11z m15 -75 c0 -8 -19 -13 -24 -6 -3 5 1 9 9 9 8 0 15 -2 15 -3z
m0 -50 c0 -8 -5 -12 -11 -8 -6 3 -15 0 -20 -7 -6 -9 -9 -10 -9 -2 0 7 8 17 18
22 22 13 22 14 22 -5z m16 -81 c-2 -9 -11 -17 -20 -19 -16 -2 -16 -1 -2 15 9
10 13 21 9 26 -5 4 -3 5 4 2 6 -4 10 -15 9 -24z m110 -92 c-7 -11 18 -33 27
-24 4 3 7 0 7 -9 0 -8 -6 -15 -14 -15 -8 0 -14 5 -13 11 1 6 -3 10 -10 9 -6
-1 -10 5 -8 15 5 23 4 22 11 22 3 0 3 -4 0 -9z"/>
<path d="M444 1815 c-4 -8 -10 -12 -15 -9 -5 3 -9 0 -9 -5 0 -6 5 -11 12 -11
6 0 9 -2 7 -5 -3 -2 -15 -2 -27 2 -18 4 -20 8 -11 19 10 12 8 13 -7 7 -10 -4
-25 -15 -32 -25 -7 -10 -21 -18 -30 -19 -10 0 -6 -5 11 -11 26 -9 39 -31 15
-25 -6 1 -14 -7 -17 -18 -6 -20 -31 -27 -42 -11 -4 4 -7 -4 -6 -18 0 -14 6
-31 13 -37 21 -17 17 -26 -13 -34 -21 -5 -24 -8 -13 -15 9 -6 17 -5 21 2 4 6
12 8 17 4 12 -7 52 14 52 27 0 4 -10 2 -22 -4 -21 -11 -22 -11 -9 4 7 10 19
17 25 17 7 0 35 35 62 77 60 95 58 89 39 97 -9 3 -18 -1 -21 -9z m-24 -51 c0
-2 -7 -4 -15 -4 -8 0 -15 4 -15 10 0 5 7 7 15 4 8 -4 15 -8 15 -10z m-90 -88
c0 -3 -4 -8 -10 -11 -5 -3 -10 -1 -10 4 0 6 5 11 10 11 6 0 10 -2 10 -4z"/>
<path d="M1043 1813 c-33 -4 -52 -31 -31 -44 9 -6 5 -15 -15 -33 -16 -14 -23
-26 -16 -26 7 0 21 8 31 17 18 16 19 16 12 -3 -4 -14 -4 -16 4 -5 7 9 7 23 1
38 -12 33 -13 33 21 33 20 0 30 5 30 15 0 8 -1 14 -2 13 -2 0 -17 -3 -35 -5z"/>
<path d="M295 1790 c-3 -5 1 -10 10 -10 9 0 13 5 10 10 -3 6 -8 10 -10 10 -2
0 -7 -4 -10 -10z"/>
<path d="M291 1754 c0 -11 3 -14 6 -6 3 7 2 16 -1 19 -3 4 -6 -2 -5 -13z"/>
<path d="M2240 1766 c0 -9 30 -14 35 -6 4 6 -3 10 -14 10 -12 0 -21 -2 -21 -4z"/>
<path d="M323 1729 c-2 -23 3 -25 10 -4 4 8 3 16 -1 19 -4 3 -9 -4 -9 -15z"/>
<path d="M754 1671 c-5 -5 -22 -11 -39 -13 -24 -2 -34 -11 -50 -45 -21 -46
-40 -58 -31 -20 6 24 -25 -38 -64 -126 -13 -32 -28 -57 -33 -57 -5 0 -4 -6 2
-14 7 -8 8 -17 3 -20 -5 -3 -12 -31 -15 -63 -6 -60 -37 -139 -51 -126 -4 4 -4
0 -1 -9 4 -9 14 -15 23 -13 9 2 22 4 28 4 6 1 19 27 28 59 10 31 28 91 41 132
13 41 29 94 34 116 7 25 27 58 49 80 48 50 96 113 90 119 -2 3 -9 1 -14 -4z"/>
<path d="M2308 1638 c6 -6 18 -8 28 -6 14 3 12 5 -9 10 -19 3 -25 2 -19 -4z"/>
<path d="M313 1576 c0 -8 6 -17 13 -20 7 -3 11 2 10 12 -3 20 -23 27 -23 8z"/>
<path d="M160 1566 c0 -2 7 -7 16 -10 8 -3 12 -2 9 4 -6 10 -25 14 -25 6z"/>
<path d="M466 1355 c4 -8 8 -15 10 -15 2 0 4 7 4 15 0 8 -4 15 -10 15 -5 0 -7
-7 -4 -15z"/>
<path d="M426 1317 c3 -10 9 -15 12 -12 3 3 0 11 -7 18 -10 9 -11 8 -5 -6z"/>
<path d="M453 1270 c-11 -16 -10 -18 2 -14 8 4 15 12 15 20 0 19 -3 18 -17 -6z"/>
<path d="M434 1220 c0 -13 4 -16 10 -10 7 7 7 13 0 20 -6 6 -10 3 -10 -10z"/>
<path d="M510 1149 c0 -5 -5 -7 -11 -3 -7 4 -7 -1 1 -16 6 -12 14 -19 18 -16
9 10 10 46 0 46 -4 0 -8 -5 -8 -11z"/>
<path d="M545 1139 c-4 -6 -5 -12 -2 -15 2 -3 7 2 10 11 7 17 1 20 -8 4z"/>
<path d="M1321 944 c-28 -30 -51 -60 -51 -66 0 -6 -11 -25 -24 -42 -25 -34
-99 -175 -111 -215 -6 -21 -3 -20 22 10 65 77 131 172 184 265 10 19 28 50 39
69 31 55 0 44 -59 -21z"/>
<path d="M1685 990 c-3 -5 -2 -10 4 -10 5 0 13 5 16 10 3 6 2 10 -4 10 -5 0
-13 -4 -16 -10z"/>
<path d="M585 980 c-3 -5 1 -10 10 -10 9 0 13 5 10 10 -3 6 -8 10 -10 10 -2 0
-7 -4 -10 -10z"/>
<path d="M1219 909 c-19 -22 -42 -48 -51 -57 -17 -15 -17 -17 0 -35 16 -19 16
-19 -3 -14 -30 10 -43 -3 -65 -68 -19 -55 -42 -289 -27 -275 5 5 27 80 48 162
13 53 81 198 118 252 53 77 37 105 -20 35z"/>
<path d="M995 859 c-4 -6 -5 -12 -2 -15 2 -3 7 2 10 11 7 17 1 20 -8 4z"/>
<path d="M1033 823 c15 -2 37 -2 50 0 12 2 0 4 -28 4 -27 0 -38 -2 -22 -4z"/>
<path d="M1309 761 c-15 -9 -47 -41 -72 -71 -25 -30 -58 -66 -73 -80 -30 -28
-60 -91 -69 -147 l-6 -38 28 34 c15 19 45 54 65 78 21 24 50 65 65 91 14 26
42 69 61 95 19 26 33 49 31 51 -2 2 -16 -4 -30 -13z"/>
<path d="M182 707 c-23 -24 -28 -37 -14 -37 4 0 15 14 24 30 21 36 18 37 -10
7z"/>
<path d="M784 708 c-12 -15 -13 -18 -3 -10 9 7 23 11 30 9 8 -2 11 -2 6 0 -4
3 -5 9 -1 14 11 19 -14 8 -32 -13z"/>
<path d="M1570 698 c0 -14 18 -17 28 -5 8 10 6 13 -9 13 -10 0 -19 -4 -19 -8z"/>
<path d="M729 663 l-24 -28 28 24 c25 23 32 31 24 31 -2 0 -14 -12 -28 -27z"/>
<path d="M137 640 c-3 -11 -1 -20 4 -20 5 0 9 9 9 20 0 11 -2 20 -4 20 -2 0
-6 -9 -9 -20z"/>
<path d="M113 593 c-3 -10 -8 -22 -11 -27 -3 -5 0 -6 5 -3 11 7 25 47 17 47
-3 0 -7 -8 -11 -17z"/>
<path d="M695 590 c-10 -11 -16 -22 -14 -24 2 -2 12 7 22 20 22 29 17 32 -8 4z"/>
<path d="M1240 529 c-49 -30 -114 -98 -139 -147 -36 -71 -22 -88 19 -22 14 22
58 71 98 108 89 82 98 106 22 61z"/>
<path d="M73 425 c-3 -9 -3 -18 -1 -21 3 -3 8 4 11 16 6 23 -1 27 -10 5z"/>
<path d="M493 330 c2 -23 22 -33 22 -11 0 5 3 13 8 17 13 13 8 23 -12 21 -14
-1 -19 -8 -18 -27z"/>
<path d="M671 324 c0 -11 3 -14 6 -6 3 7 2 16 -1 19 -3 4 -6 -2 -5 -13z"/>
<path d="M0 290 c0 -11 5 -20 10 -20 6 0 10 9 10 20 0 11 -4 20 -10 20 -5 0
-10 -9 -10 -20z"/>
<path d="M1490 300 c0 -5 5 -10 10 -10 6 0 10 5 10 10 0 6 -4 10 -10 10 -5 0
-10 -4 -10 -10z"/>
<path d="M66 258 c3 -5 10 -6 15 -3 13 9 11 12 -6 12 -8 0 -12 -4 -9 -9z"/>
<path d="M336 245 c-9 -26 -7 -32 5 -12 6 10 9 21 6 23 -2 3 -7 -2 -11 -11z"/>
<path d="M740 200 c0 -5 5 -10 11 -10 5 0 7 5 4 10 -3 6 -8 10 -11 10 -2 0 -4
-4 -4 -10z"/>
<path d="M780 131 c0 -5 7 -12 16 -15 24 -9 27 -7 10 9 -17 17 -26 19 -26 6z"/>
<path d="M1470 60 c0 -5 5 -10 10 -10 6 0 10 5 10 10 0 6 -4 10 -10 10 -5 0
-10 -4 -10 -10z"/>
<path d="M1465 19 c-10 -15 3 -25 16 -12 7 7 7 13 1 17 -6 3 -14 1 -17 -5z"/>
</g>
</svg>
